<svg width="15" height="15" viewBox="0 0 15 15" fill="none" xmlns="http://www.w3.org/2000/svg">
<path d="M3.98205 7.12114C3.98205 6.6055 4.08362 6.0949 4.28094 5.61851C4.47827 5.14212 4.7675 4.70926 5.13212 4.34464C5.49673 3.98003 5.92959 3.6908 6.40599 3.49347C6.88238 3.29614 7.39297 3.19458 7.90862 3.19458C8.42426 3.19458 8.93485 3.29614 9.41125 3.49347C9.88764 3.6908 10.3205 3.98003 10.6851 4.34464C11.0497 4.70926 11.339 5.14212 11.5363 5.61851C11.7336 6.0949 11.8352 6.6055 11.8352 7.12114V7.12114C11.8352 9.07895 12.2453 10.2165 12.6063 10.8399C12.6446 10.9063 12.6648 10.9816 12.6649 11.0583C12.665 11.1349 12.6449 11.2103 12.6067 11.2767C12.5684 11.3432 12.5134 11.3984 12.4471 11.437C12.3808 11.4755 12.3056 11.4959 12.2289 11.4961H3.5883C3.51164 11.4959 3.43639 11.4755 3.37009 11.437C3.3038 11.3984 3.24879 11.3432 3.21057 11.2767C3.17236 11.2103 3.15228 11.1349 3.15234 11.0583C3.15241 10.9816 3.17263 10.9063 3.21096 10.8399C3.5719 10.2165 3.98205 9.07895 3.98205 7.12114Z" stroke="#48B16E" stroke-linecap="round" stroke-linejoin="round"/>
<path d="M6.15869 11.4961V11.9336C6.15869 12.3977 6.34307 12.8428 6.67125 13.171C6.99944 13.4992 7.44456 13.6836 7.90869 13.6836C8.37282 13.6836 8.81794 13.4992 9.14613 13.171C9.47432 12.8428 9.65869 12.3977 9.65869 11.9336V11.4961" stroke="#48B16E" stroke-linecap="round" stroke-linejoin="round"/>
<path d="M10.9385 2.30859C11.8293 2.8709 12.5482 3.6674 13.0166 4.61094" stroke="#48B16E" stroke-linecap="round" stroke-linejoin="round"/>
<path d="M2.80078 4.61094C3.26919 3.6674 3.98813 2.8709 4.87891 2.30859" stroke="#48B16E" stroke-linecap="round" stroke-linejoin="round"/>
</svg>
