<svg width="109" height="201" viewBox="0 0 109 201" fill="none" xmlns="http://www.w3.org/2000/svg">
<path d="M70.9522 80.7998L76.9 95.9502C77.0757 96.3793 77.1065 96.8539 76.988 97.3022C76.8695 97.7504 76.608 98.1478 76.2432 98.434C75.8784 98.7202 75.4302 98.8795 74.9666 98.8879C74.503 98.8963 74.0493 98.7533 73.6744 98.4806L50.8477 82.366" fill="white"/>
<path d="M70.9522 80.7998L76.9 95.9502C77.0757 96.3793 77.1065 96.8539 76.988 97.3022C76.8695 97.7504 76.608 98.1478 76.2432 98.434C75.8784 98.7202 75.4302 98.8795 74.9666 98.8879C74.503 98.8963 74.0493 98.7533 73.6744 98.4806L50.8477 82.366" fill="#48B16E" fill-opacity="0.25"/>
<path d="M44.8096 90.5612C69.5573 90.5612 89.6193 70.2884 89.6193 45.2806C89.6193 20.2728 69.5573 0 44.8096 0C20.062 0 0 20.2728 0 45.2806C0 70.2884 20.062 90.5612 44.8096 90.5612Z" fill="white"/>
<path d="M44.8096 90.5612C69.5573 90.5612 89.6193 70.2884 89.6193 45.2806C89.6193 20.2728 69.5573 0 44.8096 0C20.062 0 0 20.2728 0 45.2806C0 70.2884 20.062 90.5612 44.8096 90.5612Z" fill="#48B16E" fill-opacity="0.25"/>
<path d="M31.0195 36.0559C31.5138 35.8923 37.9625 34.7496 40.7605 30.3399C43.5584 25.9301 47.088 21.1065 48.3931 20.6181C49.6981 20.1298 53.2352 24.6833 50.9562 28.9294C49.9898 30.729 49.5474 31.8469 49.3571 32.541C49.3212 32.669 49.3154 32.8036 49.34 32.9342C49.3647 33.0648 49.419 33.188 49.499 33.2941C49.5789 33.4001 49.6822 33.4862 49.8008 33.5457C49.9194 33.6051 50.05 33.6362 50.1826 33.6366L63.0355 33.6069C66.5601 33.6069 69.3185 36.859 68.5227 40.2995C68.3572 41.0597 68.0131 41.7693 67.5191 42.3693C67.3405 42.5873 67.2182 42.8461 67.1631 43.1228C67.1079 43.3995 67.1215 43.6856 67.2028 43.9557C67.4648 44.8392 67.4948 45.7755 67.29 46.674C67.0852 47.5725 66.6524 48.4028 66.0336 49.0843C65.7384 49.4177 65.5795 49.8506 65.5887 50.2964C65.6184 51.2879 65.5171 53.147 64.5111 54.5252C64.261 54.8783 64.1517 55.3124 64.2046 55.7422C64.3232 56.7932 64.2417 58.7837 62.2816 60.0553C59.5133 61.8524 43.3335 60.8733 40.758 60.0553C38.1825 59.2373 33.2811 59.4034 29.9492 59.5595" fill="white"/>
<path d="M25.2461 31.7686H31.2763C31.5885 31.7686 31.8977 31.8305 32.1861 31.9509C32.4746 32.0713 32.7366 32.2477 32.9574 32.4701C33.1782 32.6925 33.3533 32.9566 33.4728 33.2472C33.5922 33.5378 33.6537 33.8492 33.6537 34.1638V59.738C33.6537 60.3732 33.4033 60.9825 32.9574 61.4317C32.5116 61.8808 31.9068 62.1332 31.2763 62.1332H25.2461C24.2412 62.1332 23.2774 61.731 22.5668 61.0151C21.8562 60.2992 21.457 59.3282 21.457 58.3158V35.591C21.4564 35.0892 21.5539 34.5923 21.744 34.1286C21.9342 33.6648 22.2132 33.2434 22.5651 32.8884C22.917 32.5334 23.3349 32.2518 23.7949 32.0596C24.255 31.8675 24.7481 31.7686 25.2461 31.7686Z" fill="#48B16E"/>
<path d="M20.8348 95.2168C20.6937 95.8753 21.2456 99.2338 19.3672 103.555" stroke="#EFD09C" stroke-width="2" stroke-miterlimit="10" stroke-linecap="round"/>
<path d="M8.07241 110.458L20.1674 105.974C20.1674 105.974 20.136 91.9757 12.8515 92.5245C5.56686 93.0733 8.07241 110.458 8.07241 110.458Z" fill="#EFD09C"/>
<path d="M11.9961 88.4688C11.9961 88.4688 17.5999 90.8332 18.7256 99.532" stroke="#EFD09C" stroke-width="2" stroke-miterlimit="10" stroke-linecap="round"/>
<path d="M13.9392 94.3208C13.9142 94.2393 11.3396 91.069 8.69922 90.2725" stroke="#EFD09C" stroke-width="2" stroke-miterlimit="10" stroke-linecap="round"/>
<path d="M10.6293 95.8893C10.5916 95.8109 9.20244 93.2239 6.46484 92.8789" stroke="#EFD09C" stroke-width="2" stroke-miterlimit="10" stroke-linecap="round"/>
<path d="M8.83279 99.5551C8.81084 99.4735 7.86695 96.692 5.22656 95.8955" stroke="#EFD09C" stroke-width="2" stroke-miterlimit="10" stroke-linecap="round"/>
<path d="M87.4961 181.412C87.9038 180.876 88.8351 177.599 92.3786 174.491" stroke="#EFD09C" stroke-width="3" stroke-miterlimit="10" stroke-linecap="round"/>
<path d="M105.537 173.062L92.68 171.968C92.68 171.968 86.7219 184.659 93.5706 187.255C100.419 189.852 105.537 173.062 105.537 173.062Z" fill="#EFD09C"/>
<path d="M92.6052 191.274C92.6052 191.274 88.5442 186.749 91.2317 178.398" stroke="#EFD09C" stroke-width="3" stroke-miterlimit="10" stroke-linecap="round"/>
<path d="M93.3516 185.156C93.3516 185.241 94.3174 189.205 96.3683 191.052" stroke="#EFD09C" stroke-width="3" stroke-miterlimit="10" stroke-linecap="round"/>
<path d="M97.0039 185.149C97.0039 185.237 97.1607 188.169 99.4875 189.649" stroke="#EFD09C" stroke-width="3" stroke-miterlimit="10" stroke-linecap="round"/>
<path d="M100.186 182.6C100.186 182.684 99.8383 185.601 101.889 187.448" stroke="#EFD09C" stroke-width="3" stroke-miterlimit="10" stroke-linecap="round"/>
<path d="M58.4079 176.744C67.3877 176.744 74.6672 169.465 74.6672 160.485C74.6672 151.505 67.3877 144.226 58.4079 144.226C49.428 144.226 42.1484 151.505 42.1484 160.485C42.1484 169.465 49.428 176.744 58.4079 176.744Z" fill="#B3CAFF"/>
<path d="M51.2148 119.543C53.0964 122.76 55.0657 130.772 54.0842 133.877" stroke="#EFD09C" stroke-width="13" stroke-miterlimit="10"/>
<path d="M47.6484 123.819L49.0738 128.808C49.0738 128.808 51.497 127.194 54.3193 123.819C54.3193 123.819 51.4115 124.748 47.6484 123.819Z" fill="#D6AD6A"/>
<path d="M57.63 107.669L59.1076 108.68C60.5839 109.691 61.5983 111.246 61.9277 113.005C62.257 114.763 61.8744 116.58 60.864 118.056L58.3684 121.702C57.0672 123.604 55.064 124.91 52.7997 125.334C50.5353 125.758 48.1952 125.265 46.2941 123.964L45.8412 123.654C44.5167 122.748 43.6065 121.352 43.3109 119.774C43.0154 118.197 43.3587 116.566 44.2653 115.242L48.2487 109.422C49.2592 107.945 50.8147 106.931 52.573 106.602C54.3314 106.272 56.1486 106.655 57.6248 107.665L57.63 107.669Z" fill="#EFD09C"/>
<path d="M48.1339 114.305C48.4388 114.305 48.6859 114.058 48.6859 113.753C48.6859 113.448 48.4388 113.201 48.1339 113.201C47.8291 113.201 47.582 113.448 47.582 113.753C47.582 114.058 47.8291 114.305 48.1339 114.305Z" fill="#041427"/>
<path d="M44.3612 113.975C43.9975 114.687 44.2201 116.036 45.1452 116.305L46.0138 114.267C46.0703 114.129 45.4807 113.64 45.3867 113.608C45.2964 113.559 45.1967 113.529 45.0941 113.521C44.9915 113.513 44.8883 113.526 44.7914 113.561C44.6945 113.596 44.606 113.651 44.5319 113.722C44.4577 113.793 44.3996 113.88 44.3612 113.975Z" fill="#EFD09C"/>
<path d="M46.2638 116.341L47.8066 116.401C47.8567 116.402 47.9056 116.416 47.9493 116.44C47.993 116.465 48.0302 116.499 48.0579 116.541C48.0855 116.583 48.1027 116.631 48.1081 116.68C48.1135 116.73 48.1069 116.781 48.0889 116.827C47.8443 117.454 47.2829 118.546 46.4237 118.433C45.5645 118.32 45.668 117.273 45.7965 116.699C45.8206 116.594 45.8804 116.501 45.9657 116.436C46.051 116.37 46.1565 116.337 46.2638 116.341Z" fill="#041427"/>
<path d="M46.4288 118.432C47.012 118.511 47.4573 118.028 47.7615 117.52C47.1688 117.178 46.3222 117.576 45.7891 117.905C45.8298 118.048 45.9128 118.174 46.027 118.268C46.1412 118.362 46.2813 118.419 46.4288 118.432Z" fill="#C52727"/>
<path d="M46.6274 109.767L48.9479 110.673C49.3055 110.813 49.6883 110.876 50.0718 110.858C50.4552 110.841 50.8308 110.744 51.1744 110.573L52.1151 110.096L51.3876 111.73L52.4695 112.398C52.8643 112.643 53.1901 112.985 53.4161 113.391C53.6422 113.797 53.761 114.254 53.7615 114.718V114.919C53.7615 114.919 54.7022 113.815 56.0099 114.292C57.3175 114.769 55.8437 117.447 54.2569 117.375L54.1001 126.033C54.0978 126.145 54.1205 126.256 54.1665 126.359C54.2126 126.461 54.2809 126.552 54.3665 126.625C54.4521 126.697 54.5529 126.75 54.6614 126.779C54.7699 126.808 54.8834 126.812 54.9938 126.791L67.901 124.374C68.0257 124.351 68.1442 124.302 68.249 124.231C68.3538 124.16 68.4427 124.068 68.51 123.961C68.5773 123.853 68.6214 123.733 68.6397 123.608C68.6579 123.482 68.6498 123.354 68.616 123.232C67.6752 119.88 64.2979 108.807 59.4217 107.296C59.0062 107.161 58.6131 106.966 58.2551 106.716C56.5775 105.584 50.7291 102.856 46.2918 108.597C46.2202 108.691 46.1716 108.801 46.1498 108.917C46.1279 109.033 46.1335 109.153 46.1661 109.266C46.1987 109.38 46.2574 109.484 46.3375 109.571C46.4176 109.658 46.5168 109.725 46.6274 109.767Z" fill="#041427"/>
<path d="M42.2884 159.578C42.2884 159.578 30.9579 182.446 29.1172 200.173L74.4155 200.172C74.4155 200.172 81.0287 167.333 74.3556 157.013" fill="#B3CAFF"/>
<path d="M48.6038 111.895C48.9198 112.001 49.2204 112.148 49.4975 112.334C49.8362 112.559 50.1498 112.02 49.8111 111.791C49.4867 111.579 49.1356 111.41 48.7669 111.289C48.3812 111.164 48.2181 111.769 48.6007 111.895H48.6038Z" fill="#041427"/>
<path d="M51.8896 200.025L51.8896 200.025C51.8629 200.095 51.8766 200.16 51.9162 200.209C51.9539 200.256 52.0119 200.286 52.0713 200.299C52.1864 200.325 52.3438 200.294 52.3973 200.153C52.3973 200.153 52.3973 200.153 52.3973 200.153L57.6635 186.237L57.6635 186.237C57.6902 186.166 57.6765 186.102 57.6369 186.052C57.5993 186.005 57.5412 185.976 57.4818 185.962C57.3667 185.937 57.2094 185.967 57.1558 186.109C57.1558 186.109 57.1558 186.109 57.1558 186.109L51.8896 200.025Z" fill="#041427" stroke="#041427" stroke-width="0.1"/>
<path d="M48.3673 166.269C50.4725 168.326 52.6477 170.305 54.893 172.205C55.2066 172.465 55.6456 172.023 55.3383 171.763C53.093 169.863 50.9168 167.884 48.8095 165.827C48.521 165.545 48.0788 165.987 48.3673 166.269Z" fill="#041427"/>
<path d="M13.8433 101.301C13.8433 101.301 13.4325 125.88 21.6076 134.359C29.7828 142.838 50.5001 140.21 50.5001 140.21" stroke="#005AAA" stroke-width="20" stroke-miterlimit="10"/>
<path d="M61.6133 136.607C61.6133 136.607 82.4228 129.394 94.8094 150.254C102.834 163.763 96.2488 177.931 96.2488 177.931" stroke="#005AAA" stroke-width="20" stroke-miterlimit="10"/>
<path d="M91.4249 179.891C91.9888 179.95 92.5578 179.847 93.0654 179.594C93.573 179.342 93.9981 178.95 94.291 178.464C94.5011 178.119 93.9618 177.806 93.7485 178.151C93.5102 178.541 93.164 178.854 92.7517 179.052C92.3394 179.25 91.8786 179.325 91.4249 179.267C91.0235 179.223 91.0266 179.85 91.4249 179.894V179.891Z" fill="#041427"/>
<path d="M45.6951 95.1497L46.5168 97.8058C46.6328 98.1915 47.2411 98.0253 47.1188 97.6396L46.3004 94.9835C46.1812 94.6009 45.576 94.764 45.6951 95.1497Z" fill="#041427"/>
<path d="M55.2623 93.3393C54.8461 94.682 54.5213 96.0513 54.2902 97.4379C54.2243 97.833 54.8295 98.0024 54.8954 97.6041C55.1265 96.2175 55.4513 94.8482 55.8675 93.5055C55.9867 93.1198 55.3814 92.9536 55.2623 93.3393Z" fill="#041427"/>
<path d="M53.9542 100.694C54.0374 100.694 54.1171 100.661 54.1759 100.602C54.2348 100.543 54.2678 100.463 54.2678 100.38C54.2678 100.297 54.2348 100.217 54.1759 100.158C54.1171 100.099 54.0374 100.066 53.9542 100.066C53.871 100.066 53.7913 100.099 53.7325 100.158C53.6736 100.217 53.6406 100.297 53.6406 100.38C53.6406 100.463 53.6736 100.543 53.7325 100.602C53.7913 100.661 53.871 100.694 53.9542 100.694Z" fill="#041427"/>
<path d="M64.5007 96.9452C63.9058 97.7968 63.2662 98.6164 62.5847 99.4006C62.3213 99.7141 62.7635 100.15 63.03 99.8427C63.7447 99.0174 64.4166 98.156 65.0432 97.2619C65.2753 96.9295 64.7297 96.6159 64.5007 96.9483V96.9452Z" fill="#041427"/>
<path d="M61.0512 128.428L41.2357 132.006C40.0561 132.219 38.9326 132.672 37.9338 133.334C36.935 133.997 36.082 134.857 35.4271 135.861C34.7721 136.865 34.329 137.992 34.1248 139.173C33.9206 140.355 33.9597 141.565 34.2396 142.731L38.8744 161.978C39.05 162.706 39.4783 163.348 40.083 163.79C40.6877 164.232 41.4296 164.444 42.1764 164.39L74.2437 161.825C75.051 161.761 75.8029 161.389 76.3444 160.787C76.8858 160.185 77.1756 159.398 77.1538 158.589L76.6708 141.128C76.6179 139.218 76.153 137.341 75.3081 135.626C74.4631 133.912 73.2579 132.4 71.7749 131.194C70.2919 129.988 68.566 129.117 66.7152 128.64C64.8645 128.162 62.9324 128.09 61.0512 128.428Z" fill="#005AAA"/>
</svg>
