<svg width="12" height="12" viewBox="0 0 12 12" fill="none" xmlns="http://www.w3.org/2000/svg">
<path d="M4.34531 10.1251H2.25C2.15055 10.1251 2.05516 10.0856 1.98484 10.0152C1.91451 9.9449 1.875 9.84952 1.875 9.75006V7.65475C1.87483 7.60606 1.88427 7.55781 1.90277 7.51277C1.92127 7.46772 1.94847 7.42677 1.98281 7.39225L7.60781 1.76725C7.64271 1.73182 7.6843 1.70368 7.73017 1.68448C7.77604 1.66527 7.82527 1.65538 7.875 1.65538C7.92473 1.65538 7.97396 1.66527 8.01983 1.68448C8.0657 1.70368 8.1073 1.73182 8.14219 1.76725L10.2328 3.85788C10.2682 3.89277 10.2964 3.93436 10.3156 3.98023C10.3348 4.0261 10.3447 4.07534 10.3447 4.12507C10.3447 4.17479 10.3348 4.22403 10.3156 4.2699C10.2964 4.31577 10.2682 4.35736 10.2328 4.39225L4.60781 10.0173C4.5733 10.0516 4.53234 10.0788 4.4873 10.0973C4.44226 10.1158 4.39401 10.1252 4.34531 10.1251Z" stroke="#2791E0" stroke-linecap="round" stroke-linejoin="round"/>
<path d="M6.375 3L9 5.625" stroke="#2791E0" stroke-linecap="round" stroke-linejoin="round"/>
</svg>
