<svg width="25" height="24" viewBox="0 0 25 24" fill="none" xmlns="http://www.w3.org/2000/svg">
<path d="M9.34766 11.6998C10.1194 13.2935 11.4082 14.579 13.0039 15.3467C13.1216 15.4024 13.2518 15.4265 13.3817 15.4167C13.5115 15.4068 13.6366 15.3633 13.7445 15.2904L16.0883 13.7248C16.1918 13.6546 16.3115 13.6117 16.4361 13.6002C16.5607 13.5887 16.6861 13.609 16.8008 13.6592L21.1883 15.5435C21.3382 15.6059 21.4635 15.7159 21.5448 15.8565C21.6261 15.9971 21.659 16.1606 21.6383 16.3217C21.4992 17.407 20.9694 18.4046 20.1481 19.1276C19.3267 19.8506 18.27 20.2495 17.1758 20.2498C13.7943 20.2498 10.5513 18.9065 8.16017 16.5154C5.76908 14.1243 4.42578 10.8813 4.42578 7.49979C4.42603 6.40553 4.82498 5.34886 5.54799 4.5275C6.271 3.70613 7.26853 3.17635 8.35391 3.03729C8.515 3.01659 8.67844 3.04943 8.81904 3.13074C8.95964 3.21206 9.06962 3.33733 9.13203 3.48729L11.0164 7.88416C11.0654 7.99699 11.0859 8.12013 11.0761 8.24275C11.0663 8.36537 11.0265 8.48369 10.9602 8.58729L9.39453 10.9685C9.32483 11.0762 9.28392 11.2 9.27571 11.328C9.26751 11.4561 9.29228 11.5841 9.34766 11.6998Z" stroke="#041427" stroke-width="1.5" stroke-linecap="round" stroke-linejoin="round"/>
<path d="M16.4258 4.5H20.1758V8.25" stroke="#041427" stroke-width="1.5" stroke-linecap="round" stroke-linejoin="round"/>
<path d="M15.6758 9L20.1758 4.5" stroke="#041427" stroke-width="1.5" stroke-linecap="round" stroke-linejoin="round"/>
</svg>
