<svg width="319" height="320" viewBox="0 0 319 320" fill="none" xmlns="http://www.w3.org/2000/svg">
<path d="M98.6385 147.223C96.5048 145.666 94.9258 147.337 94.9258 147.337L97.6101 149.76C97.6613 149.67 100.772 148.777 98.6385 147.223Z" fill="#041427"/>
<path d="M180.295 267.756L178.023 282.161C177.964 282.535 177.772 282.876 177.48 283.125C177.189 283.373 176.817 283.513 176.431 283.518H161.31C161.085 283.52 160.864 283.469 160.664 283.369C160.464 283.268 160.292 283.122 160.162 282.942C160.033 282.762 159.95 282.554 159.92 282.336C159.891 282.118 159.916 281.896 159.993 281.689C160.391 280.714 161.382 279.614 163.765 279.11C168.54 278.108 167.573 266.238 167.573 266.238" fill="#082241"/>
<path d="M165.744 276.179C166.278 276.406 166.776 276.707 167.223 277.074C167.408 277.228 167.678 276.965 167.49 276.811C167.021 276.419 166.496 276.097 165.932 275.857C165.71 275.766 165.518 276.087 165.744 276.179Z" fill="#2791E0"/>
<path d="M167.057 274.478C167.604 274.73 168.098 275.169 168.496 275.754C168.671 276.017 168.951 275.623 168.776 275.36C168.328 274.707 167.774 274.218 167.162 273.936C166.92 273.826 166.815 274.363 167.057 274.483V274.478Z" fill="#2791E0"/>
<path d="M167.082 272.892C167.575 272.984 168.047 273.108 168.489 273.259C168.742 273.347 168.973 273.127 168.724 273.039C168.247 272.877 167.737 272.745 167.204 272.647C166.919 272.594 166.797 272.839 167.082 272.897V272.892Z" fill="#2791E0"/>
<path d="M167.999 278.335L168.114 278.22C168.139 278.195 168.159 278.166 168.173 278.133C168.186 278.101 168.193 278.066 168.194 278.031C168.194 277.996 168.187 277.961 168.174 277.929C168.161 277.896 168.141 277.866 168.117 277.841C168.092 277.816 168.063 277.796 168.03 277.783C167.998 277.769 167.963 277.762 167.928 277.762C167.893 277.761 167.858 277.768 167.826 277.781C167.793 277.795 167.764 277.814 167.739 277.839L167.624 277.959C167.579 278.01 167.555 278.076 167.557 278.143C167.559 278.211 167.587 278.276 167.635 278.324C167.683 278.372 167.747 278.4 167.815 278.402C167.883 278.404 167.949 278.38 167.999 278.335Z" fill="#2791E0"/>
<path d="M235.456 256.64L245.489 267.465C245.752 267.748 245.902 268.115 245.913 268.497C245.924 268.88 245.795 269.254 245.549 269.551L235.948 281.084C235.808 281.256 235.627 281.393 235.42 281.483C235.214 281.572 234.988 281.611 234.763 281.597C234.537 281.582 234.319 281.514 234.126 281.399C233.933 281.284 233.772 281.125 233.656 280.935C233.132 280.017 232.884 278.567 233.996 276.429C236.22 272.162 226.164 265.409 226.164 265.409" fill="#082241"/>
<path d="M232.891 273.26C233.528 272.899 234.21 272.642 234.917 272.497C235.214 272.437 235.091 271.95 234.793 272.004C234.049 272.159 233.329 272.431 232.658 272.812C232.388 272.964 232.626 273.397 232.891 273.25V273.26Z" fill="#2791E0"/>
<path d="M232.256 271.336C232.845 271.132 233.519 271.008 234.219 270.976C234.528 270.961 234.533 270.703 234.219 270.723C233.434 270.755 232.677 270.89 232.013 271.116C231.752 271.207 232.013 271.43 232.256 271.341V271.336Z" fill="#2791E0"/>
<path d="M231.489 270.046C231.784 269.74 232.1 269.492 232.431 269.307C232.616 269.199 232.537 268.712 232.346 268.815C231.99 269.015 231.649 269.281 231.331 269.608C231.164 269.78 231.331 270.213 231.489 270.041V270.046Z" fill="#2791E0"/>
<path d="M236.353 272.4V272.24C236.316 271.922 235.668 271.917 235.724 272.24V272.4C235.768 272.718 236.416 272.723 236.353 272.4Z" fill="#2791E0"/>
<path d="M235.405 270.719C235.494 270.704 235.575 270.664 235.633 270.606C235.691 270.548 235.723 270.475 235.723 270.399C235.723 270.324 235.691 270.251 235.633 270.192C235.575 270.134 235.494 270.094 235.405 270.079C235.315 270.094 235.234 270.134 235.176 270.192C235.118 270.251 235.086 270.324 235.086 270.399C235.086 270.475 235.118 270.548 235.176 270.606C235.234 270.664 235.315 270.704 235.405 270.719Z" fill="#2791E0"/>
<path d="M198.137 186.881C198.137 186.881 202.488 224.579 211.862 238.127C221.237 251.676 234.451 264.961 234.451 264.961" stroke="#C9DCEE" stroke-width="20" stroke-miterlimit="10"/>
<path d="M150.992 175.244C150.345 174.715 149.666 174.226 148.961 173.778L146.245 169.549C146.139 169.369 145.966 169.238 145.764 169.185C145.563 169.132 145.349 169.16 145.168 169.265C144.99 169.372 144.861 169.545 144.809 169.747C144.756 169.949 144.784 170.164 144.886 170.346L146.178 172.349C145.818 172.214 145.45 172.103 145.077 172.016C143.391 171.291 141.701 170.442 140.417 169.136C139.885 168.592 139.05 169.433 139.587 169.977C140.466 170.841 141.47 171.566 142.564 172.128C142.185 172.285 141.843 172.52 141.558 172.817C140.602 172.335 139.673 171.8 138.776 171.215C138.709 171.176 138.635 171.15 138.558 171.139C138.481 171.128 138.403 171.133 138.328 171.153C138.253 171.173 138.183 171.207 138.121 171.254C138.06 171.301 138.008 171.36 137.969 171.427C137.929 171.495 137.904 171.569 137.893 171.646C137.883 171.724 137.887 171.802 137.907 171.878C137.926 171.953 137.96 172.024 138.007 172.086C138.054 172.149 138.112 172.201 138.179 172.24C139.051 172.805 139.952 173.322 140.879 173.79C140.73 174.117 140.646 174.469 140.632 174.828C139.89 174.506 139.177 174.12 138.501 173.674C138.434 173.635 138.361 173.609 138.284 173.598C138.207 173.588 138.129 173.592 138.054 173.612C137.979 173.632 137.909 173.666 137.847 173.713C137.785 173.76 137.733 173.819 137.694 173.887C137.655 173.954 137.629 174.028 137.619 174.106C137.608 174.183 137.613 174.262 137.632 174.337C137.652 174.413 137.686 174.483 137.733 174.546C137.78 174.608 137.838 174.66 137.905 174.7C138.844 175.316 139.848 175.825 140.898 176.218C141.064 176.608 141.275 176.978 141.527 177.319C140.759 177.007 139.984 176.706 139.209 176.422C139.06 176.379 138.9 176.398 138.764 176.473C138.628 176.547 138.526 176.673 138.481 176.822C138.442 176.972 138.462 177.131 138.536 177.267C138.61 177.402 138.733 177.504 138.879 177.551C140.354 178.096 141.813 178.681 143.252 179.318C143.361 179.369 143.481 179.393 143.602 179.386C144.434 180.038 145.32 180.618 146.249 181.12L150.992 175.244Z" fill="#D6AD6A"/>
<path d="M56.0627 207.242L45.2406 196.932C44.9566 196.662 44.5856 196.502 44.1947 196.483C43.8038 196.463 43.4187 196.584 43.1089 196.824L31.1291 206.147C30.95 206.284 30.8065 206.462 30.711 206.667C30.6154 206.872 30.5706 207.096 30.5804 207.322C30.5902 207.548 30.6543 207.768 30.7673 207.963C30.8802 208.159 31.0386 208.324 31.2289 208.444C32.1551 208.993 33.6241 209.278 35.8396 208.216C40.2507 206.087 46.9132 216.32 46.9132 216.32" fill="#2791E0"/>
<path d="M42.3404 209.35C41.9692 209.788 41.6626 210.292 41.4325 210.842C41.3154 211.113 41.671 211.352 41.7881 211.075C42.0011 210.564 42.2835 210.094 42.6249 209.684C42.8089 209.464 42.5161 209.131 42.332 209.35H42.3404Z" fill="#041427"/>
<path d="M40.4486 208.08C40.0509 208.478 39.7329 208.987 39.5197 209.566C39.4178 209.834 39.7388 210.07 39.8407 209.801C40.038 209.252 40.3354 208.767 40.7092 208.386C40.898 208.198 40.6337 207.868 40.4486 208.056V208.08Z" fill="#041427"/>
<path d="M39.1422 207.405C38.7667 207.69 38.4634 208.026 38.2478 208.396C38.1391 208.58 38.4985 208.745 38.603 208.558C38.8038 208.211 39.0874 207.897 39.4389 207.631C39.6311 207.489 39.3386 207.263 39.1463 207.405H39.1422Z" fill="#041427"/>
<path d="M89.7367 184.321C89.7367 184.321 93.5991 229.489 83.5313 232.135C73.4636 234.781 47.1426 208.333 47.1426 208.333" stroke="#005AAA" stroke-width="20" stroke-miterlimit="10"/>
<path d="M108.307 267.756L110.572 282.161C110.632 282.539 110.828 282.883 111.124 283.132C111.42 283.381 111.796 283.518 112.186 283.518H127.291C127.516 283.521 127.738 283.47 127.938 283.37C128.139 283.27 128.311 283.124 128.44 282.944C128.57 282.763 128.653 282.555 128.682 282.336C128.711 282.118 128.685 281.895 128.607 281.689C128.21 280.714 127.224 279.614 124.839 279.11C120.069 278.108 121.039 266.238 121.039 266.238" fill="#2791E0"/>
<path d="M90.1491 195.84C96.3066 195.84 101.298 190.826 101.298 184.64C101.298 178.455 96.3066 173.44 90.1491 173.44C83.9916 173.44 79 178.455 79 184.64C79 190.826 83.9916 195.84 90.1491 195.84Z" fill="#005AAA"/>
<path d="M90.0117 189.44C90.0117 189.44 105.833 219.503 108.459 231.145C111.086 242.787 114.678 270.72 114.678 270.72" stroke="#005AAA" stroke-width="20" stroke-miterlimit="10"/>
<path d="M93.1941 154.881L91.9199 161.281" stroke="#EFD09C" stroke-width="6" stroke-miterlimit="10"/>
<path d="M93.2319 156.532C94.5342 159.375 95.2736 159.273 95.2736 159.273L96.2773 156.548C96.2773 156.548 92.3053 154.508 93.2319 156.532Z" fill="#D6AD6A"/>
<path d="M95.3357 160.482L87.5454 160.014C85.5527 159.894 83.5889 160.537 82.0524 161.813C80.5158 163.088 79.5217 164.901 79.2716 166.884L77.0972 184.135C77.0719 184.337 77.0893 184.541 77.1481 184.735C77.2069 184.93 77.3058 185.109 77.4385 185.263C77.5711 185.416 77.7346 185.54 77.9181 185.627C78.1017 185.713 78.3014 185.759 78.5041 185.763L101.979 186.24C102.521 186.25 103.046 186.046 103.439 185.672C103.832 185.297 104.061 184.782 104.077 184.239L104.477 170.472C104.549 167.945 103.635 165.488 101.929 163.624C100.222 161.759 97.8576 160.632 95.3357 160.482Z" fill="#082241"/>
<path d="M137.798 180.48L133.154 174.765C133.154 174.765 140.017 169.043 142.758 172.794C145.499 176.546 137.798 180.48 137.798 180.48Z" fill="#EFD09C"/>
<path d="M138.022 169.297L134.556 174.274C134.002 175.073 135.359 175.813 135.925 175.021L139.391 170.048C139.949 169.245 138.588 168.506 138.022 169.301V169.297Z" fill="#EFD09C"/>
<path d="M145.17 176.042C143.582 176.659 142.016 177.328 140.471 178.05C139.768 178.374 140.374 179.462 141.069 179.142C142.523 178.464 143.997 177.863 145.487 177.261C146.202 176.98 145.889 175.76 145.174 176.042H145.17Z" fill="#EFD09C"/>
<path d="M145.637 173.523C144.465 174.163 143.189 174.66 141.849 174.999C141.107 175.187 141.441 176.167 142.171 175.976C143.612 175.613 144.985 175.081 146.249 174.397C146.901 174.056 146.294 173.168 145.637 173.523Z" fill="#EFD09C"/>
<path d="M142.37 174.021C143.708 173.433 145.002 172.755 146.242 171.992C146.908 171.594 146.291 170.563 145.625 170.977C144.383 171.737 143.088 172.414 141.748 173.003C141.032 173.321 141.657 174.336 142.37 174.021Z" fill="#EFD09C"/>
<path d="M143.638 168.508C142.09 170.244 139.993 171.23 137.996 172.15C137.323 172.458 137.609 173.704 138.302 173.391C140.488 172.384 142.737 171.303 144.451 169.419C144.977 168.838 144.164 167.926 143.638 168.508Z" fill="#EFD09C"/>
<path d="M234.371 192.64L226.807 194.947C226.807 194.947 229.542 203.716 234.241 202.022C238.939 200.328 234.371 192.64 234.371 192.64Z" fill="#D6AD6A"/>
<path d="M229.314 202.135L229.354 195.945C229.354 194.951 228.139 194.951 228.12 195.945L228.08 202.135C228.08 203.125 229.293 203.129 229.314 202.135Z" fill="#D6AD6A"/>
<path d="M238.164 199.471C237.245 198.166 236.361 196.832 235.512 195.471C235.133 194.838 234.144 195.427 234.542 196.068C235.38 197.429 236.265 198.763 237.194 200.068C237.618 200.673 238.596 200.068 238.164 199.471Z" fill="#D6AD6A"/>
<path d="M237.582 202.559C237.018 201.133 236.277 199.804 235.381 198.609C234.92 197.992 234.129 198.88 234.587 199.497C235.416 200.615 236.099 201.86 236.614 203.193C236.905 203.929 237.869 203.295 237.582 202.559Z" fill="#D6AD6A"/>
<path d="M233.268 201.229C234.025 202.477 234.696 203.778 235.275 205.124C235.588 205.84 236.616 205.219 236.303 204.503C235.722 203.158 235.051 201.857 234.296 200.608C233.895 199.941 232.863 200.558 233.268 201.229Z" fill="#D6AD6A"/>
<path d="M233.778 205.379C233.255 203.136 231.864 201.162 230.505 199.294C230.067 198.699 229.016 199.259 229.458 199.858C230.775 201.65 232.121 203.526 232.625 205.678C232.792 206.383 233.963 206.083 233.795 205.379H233.778Z" fill="#D6AD6A"/>
<path d="M54.9303 185.6L60.5235 190.67C60.5235 190.67 54.6008 197.653 51.2385 194.278C47.8761 190.903 54.9303 185.6 54.9303 185.6Z" fill="#EFD09C"/>
<path d="M56.7806 197.338L59.1795 191.329C59.5567 190.38 58.278 189.545 57.8933 190.503L55.4944 196.508C55.1173 197.462 56.3997 198.292 56.7806 197.334V197.338Z" fill="#EFD09C"/>
<path d="M48.6294 191.288C49.9819 190.464 51.3115 189.592 52.6182 188.674C53.2284 188.262 52.6602 187.19 52.05 187.619C50.7306 188.529 49.401 189.396 48.0612 190.22C47.4243 190.604 47.9963 191.663 48.6294 191.276V191.288Z" fill="#EFD09C"/>
<path d="M48.2497 194.388C49.3475 193.39 50.5801 192.553 51.9111 191.902C52.6529 191.538 52.006 190.433 51.2685 190.793C49.8402 191.498 48.5189 192.404 47.344 193.483C46.7359 194.038 47.6416 194.943 48.2497 194.388Z" fill="#EFD09C"/>
<path d="M51.3907 192.741C50.1904 193.571 49.047 194.484 47.9688 195.474C47.4109 195.99 48.236 196.832 48.7938 196.321C49.7969 195.396 50.8616 194.545 51.9801 193.773C52.5969 193.346 52.0154 192.314 51.3907 192.741Z" fill="#EFD09C"/>
<path d="M50.8906 198.141C52.3023 196.266 54.4052 194.987 56.4069 193.786C57.0896 193.375 56.4617 192.322 55.7748 192.733C53.575 194.053 51.3583 195.468 49.8117 197.524C49.3355 198.158 50.4186 198.758 50.8906 198.141Z" fill="#EFD09C"/>
<path d="M98.1108 152.664C98.1188 152.78 98.1099 152.897 98.0845 153.008C98.0592 153.119 98.0181 153.221 97.9636 153.309C97.9091 153.397 97.8424 153.468 97.7677 153.518C97.6929 153.569 97.6117 153.597 97.5289 153.601L97.4766 152.525C97.4766 152.451 97.7413 152.332 97.7879 152.328C97.8249 152.318 97.863 152.319 97.8998 152.331C97.9365 152.343 97.9712 152.365 98.0015 152.397C98.0318 152.428 98.0572 152.468 98.076 152.514C98.0948 152.56 98.1067 152.611 98.1108 152.664Z" fill="#EFD09C"/>
<path d="M92.3133 145.155L92.5853 145.126C93.8189 144.994 95.0539 145.361 96.0186 146.144C96.9833 146.928 97.5987 148.064 97.7294 149.303L98.1932 153.698C98.2891 154.608 98.0215 155.518 97.4492 156.229C96.8769 156.941 96.0468 157.394 95.1415 157.491C93.5065 157.665 91.8696 157.179 90.5909 156.141C89.3123 155.103 88.4966 153.597 88.3233 151.954L88.1516 150.327C88.0863 149.713 88.1421 149.091 88.316 148.499C88.4899 147.906 88.7783 147.354 89.1649 146.874C89.5514 146.394 90.0285 145.994 90.5687 145.699C91.109 145.404 91.7018 145.219 92.3133 145.155Z" fill="#EFD09C"/>
<path d="M94.966 153.156C95.2055 153.357 95.5441 153.51 95.9354 153.592C96.1997 153.647 96.3143 153.399 96.0499 153.331C95.7649 153.271 95.5175 153.161 95.3405 153.015C95.1775 152.882 94.803 153.015 94.966 153.146V153.156Z" fill="#041427"/>
<path d="M96.5178 151.68C96.6937 151.68 96.8363 151.537 96.8363 151.36C96.8363 151.183 96.6937 151.04 96.5178 151.04C96.3418 151.04 96.1992 151.183 96.1992 151.36C96.1992 151.537 96.3418 151.68 96.5178 151.68Z" fill="#041427"/>
<path d="M95.9612 150.402C96.1816 150.318 96.4132 150.259 96.6503 150.226C96.9765 150.179 96.8397 149.739 96.5083 149.763C96.2281 149.804 95.9556 149.879 95.6982 149.985C95.393 150.105 95.6561 150.499 95.9612 150.379V150.402Z" fill="#041427"/>
<path d="M91.4461 191.951C93.0471 190.636 94.61 189.271 96.1346 187.857C96.3245 187.682 96.0475 187.402 95.8576 187.573C94.333 188.985 92.7702 190.351 91.1691 191.671C90.9713 191.829 91.2522 192.113 91.4461 191.951Z" fill="#041427"/>
<path d="M198.456 195.84C204.613 195.84 209.605 190.826 209.605 184.64C209.605 178.455 204.613 173.44 198.456 173.44C192.298 173.44 187.307 178.455 187.307 184.64C187.307 190.826 192.298 195.84 198.456 195.84Z" fill="#C9DCEE"/>
<path d="M200.684 186.238C200.684 186.238 183.429 215.008 180.794 226.7C178.159 238.392 173.926 270.718 173.926 270.718" stroke="#C9DCEE" stroke-width="20" stroke-miterlimit="10"/>
<path d="M198.592 153.278L198.592 161.278" stroke="#D6AD6A" stroke-width="6" stroke-miterlimit="10"/>
<path d="M195.475 155.776C194.432 158.619 193.546 159.361 193.546 159.361L193.039 155.792C193.039 155.792 196.217 153.752 195.475 155.776Z" fill="#041427"/>
<path d="M193.686 160.482L201.3 160.014C203.246 159.894 205.164 160.537 206.664 161.813C208.165 163.089 209.135 164.902 209.379 166.884L211.503 184.135C211.527 184.336 211.51 184.54 211.453 184.734C211.396 184.928 211.3 185.108 211.171 185.261C211.041 185.415 210.882 185.539 210.703 185.625C210.524 185.712 210.33 185.759 210.132 185.764L187.196 186.24C186.667 186.249 186.155 186.045 185.772 185.67C185.389 185.296 185.166 184.782 185.15 184.239L184.76 170.472C184.689 167.945 185.582 165.489 187.248 163.625C188.914 161.76 191.223 160.633 193.686 160.482Z" fill="#005AAA"/>
<path d="M190.556 151.863C190.52 151.958 190.498 152.062 190.491 152.169C190.484 152.276 190.492 152.385 190.516 152.487C190.539 152.59 190.577 152.684 190.627 152.765C190.677 152.846 190.738 152.912 190.806 152.959L191.124 152.054C191.145 151.997 190.946 151.756 190.909 151.733C190.88 151.707 190.847 151.69 190.814 151.683C190.78 151.675 190.746 151.678 190.713 151.69C190.68 151.702 190.649 151.724 190.622 151.754C190.595 151.783 190.573 151.821 190.556 151.863Z" fill="#D6AD6A"/>
<path d="M193.765 157.494C192.86 157.398 192.03 156.944 191.457 156.233C190.885 155.522 190.617 154.611 190.713 153.702L191.177 149.307C191.308 148.067 191.923 146.931 192.888 146.148C193.853 145.364 195.088 144.998 196.321 145.129L196.593 145.158C197.827 145.29 198.958 145.908 199.738 146.877C200.517 147.846 200.882 149.087 200.751 150.326L200.58 151.953C200.406 153.596 199.591 155.102 198.312 156.14C197.033 157.179 195.396 157.664 193.761 157.49L193.765 157.494Z" fill="#D6AD6A"/>
<path d="M193.325 153.645C193.127 153.802 192.86 153.915 192.559 153.969C192.505 153.979 192.46 154.002 192.432 154.034C192.404 154.065 192.397 154.103 192.412 154.138C192.427 154.173 192.462 154.203 192.511 154.222C192.559 154.24 192.617 154.244 192.671 154.235C193.042 154.169 193.374 154.031 193.625 153.84C193.8 153.706 193.505 153.51 193.325 153.645Z" fill="#041427"/>
<path d="M192.723 151.68C192.899 151.68 193.041 151.537 193.041 151.36C193.041 151.183 192.899 151.04 192.723 151.04C192.547 151.04 192.404 151.183 192.404 151.36C192.404 151.537 192.547 151.68 192.723 151.68Z" fill="#041427"/>
<path d="M193.544 149.987C193.285 149.881 193.011 149.807 192.73 149.765C192.404 149.719 192.262 150.158 192.593 150.204C192.831 150.234 193.062 150.293 193.281 150.379C193.581 150.499 193.849 150.107 193.544 149.987Z" fill="#041427"/>
<path d="M90.4668 169.6C90.4668 169.6 109.788 180.304 118.947 180.475C128.107 180.647 138.249 175.57 138.249 175.57" stroke="#082241" stroke-width="14" stroke-miterlimit="10"/>
<path d="M88.5604 203.178C91.2466 208.454 93.6614 213.865 95.7953 219.388C95.8828 219.623 96.2644 219.52 96.1928 219.285C94.0474 213.729 91.6193 208.286 88.9182 202.979C88.8029 202.756 88.465 202.951 88.5803 203.178H88.5604Z" fill="#041427"/>
<path d="M120.671 273.906C121.207 273.846 121.727 273.728 122.213 273.555C122.455 273.468 122.242 273.211 122 273.295C121.547 273.456 121.061 273.564 120.561 273.616C120.293 273.646 120.408 273.918 120.671 273.918V273.906Z" fill="#041427"/>
<path d="M121.237 275.829C121.8 275.82 122.353 275.708 122.855 275.501C123.085 275.406 122.883 275.123 122.652 275.219C122.215 275.403 121.731 275.503 121.237 275.511C120.983 275.511 120.979 275.839 121.237 275.839V275.829Z" fill="#041427"/>
<path d="M122.46 277.758C122.833 277.713 123.196 277.592 123.528 277.402C123.689 277.309 123.545 277.046 123.383 277.139C123.096 277.303 122.783 277.408 122.46 277.448C122.281 277.473 122.278 277.78 122.46 277.758Z" fill="#041427"/>
<path d="M80.345 224.327C80.8209 224.684 81.3324 224.995 81.8722 225.256C82.1071 225.372 82.3169 225.032 82.0819 224.916C81.5737 224.669 81.0905 224.378 80.6387 224.046C80.4331 223.89 80.1353 224.166 80.345 224.327Z" fill="#041427"/>
<path d="M87.28 169.822C86.3929 170.03 75.2194 167.836 68.2961 173.876C63.5157 178.049 56.0625 190.08 56.0625 190.08" stroke="#082241" stroke-width="14" stroke-miterlimit="10"/>
<path d="M147.807 177.441C147.807 177.441 168.389 187.601 176.555 181.987C184.722 176.373 194.951 168.238 194.951 168.238" stroke="#005AAA" stroke-width="14" stroke-miterlimit="10"/>
<path d="M185.747 169.699C184.318 172.986 184.726 176.773 185.178 180.335C185.212 180.589 185.506 180.48 185.472 180.23C185.036 176.777 184.624 173.091 186.01 169.896C186.03 169.851 186.035 169.797 186.025 169.746C186.014 169.695 185.989 169.652 185.954 169.626C185.919 169.6 185.878 169.593 185.839 169.606C185.8 169.62 185.767 169.653 185.747 169.699Z" fill="#041427"/>
<path d="M185.074 181.759C185.159 181.759 185.24 181.725 185.3 181.665C185.359 181.605 185.393 181.524 185.393 181.439C185.393 181.354 185.359 181.273 185.3 181.213C185.24 181.153 185.159 181.119 185.074 181.119C184.99 181.119 184.909 181.153 184.849 181.213C184.789 181.273 184.756 181.354 184.756 181.439C184.756 181.524 184.789 181.605 184.849 181.665C184.909 181.725 184.99 181.759 185.074 181.759Z" fill="#041427"/>
<path d="M201.961 165.119C201.961 165.119 216.338 168.797 224.024 178.397C229.481 185.222 231.904 195.839 231.904 195.839" stroke="#005AAA" stroke-width="14" stroke-miterlimit="10"/>
<path d="M206.548 172.658L209.998 174.066C210.237 174.163 210.339 173.702 210.103 173.58L206.649 172.172C206.414 172.075 206.312 172.541 206.548 172.658Z" fill="#041427"/>
<path d="M191.214 148.52C192.17 148.513 193.114 148.321 193.989 147.954C194.164 147.883 194.361 147.88 194.537 147.947C194.714 148.013 194.856 148.143 194.933 148.309C195.132 148.722 195.355 149.125 195.601 149.514C195.655 149.601 195.729 149.674 195.816 149.73C195.904 149.786 196.004 149.822 196.108 149.836C196.212 149.85 196.318 149.841 196.419 149.81C196.519 149.779 196.611 149.728 196.687 149.659C196.745 149.592 196.817 149.537 196.898 149.498C196.978 149.458 197.066 149.435 197.157 149.429C197.247 149.422 197.338 149.434 197.424 149.462C197.509 149.49 197.588 149.534 197.656 149.592C198.4 150.123 197.851 151.223 197.306 151.613C197.209 151.685 197.135 151.78 197.09 151.889C197.045 151.998 197.031 152.117 197.049 152.233C197.277 153.774 197.904 158.595 197.306 161.075C197.28 161.18 197.28 161.289 197.307 161.394C197.333 161.499 197.385 161.596 197.458 161.678C197.53 161.76 197.622 161.825 197.726 161.866C197.83 161.908 197.942 161.926 198.054 161.918C199.857 161.777 203.491 161.282 205.509 159.507C205.621 159.412 205.699 159.285 205.731 159.145C205.763 159.005 205.748 158.859 205.688 158.727C205.46 158.212 205.118 157.393 205.244 157.35C205.37 157.307 205.798 157.846 206.152 158.298C206.211 158.374 206.286 158.436 206.372 158.482C206.458 158.528 206.553 158.557 206.651 158.565C206.749 158.574 206.848 158.563 206.941 158.533C207.035 158.504 207.121 158.455 207.193 158.392C207.979 157.717 209.297 156.477 209.578 155.548C209.985 154.207 204.927 151.176 202.803 148.102C200.793 145.192 198.327 144.689 197.371 144.88C197.265 144.906 197.155 144.906 197.049 144.88C196.15 144.646 192.093 143.823 190.539 147.58C190.495 147.684 190.48 147.798 190.493 147.91C190.506 148.022 190.548 148.13 190.615 148.223C190.681 148.315 190.771 148.391 190.876 148.443C190.98 148.495 191.097 148.521 191.214 148.52Z" fill="#041427"/>
<path d="M93.559 150.644C93.5481 150.691 93.5257 150.735 93.4942 150.771C93.4626 150.806 93.4229 150.832 93.3791 150.846C93.3353 150.86 93.2888 150.862 93.2442 150.85C93.1997 150.839 93.1586 150.816 93.1251 150.782C93.0215 150.651 92.8866 150.551 92.7345 150.494C92.5824 150.438 92.4189 150.426 92.2612 150.461C91.7017 150.685 91.2107 152.208 92.4515 152.941L91.7245 154.746C91.5553 155.165 91.2753 155.523 90.919 155.774C90.5626 156.025 90.1454 156.159 89.7187 156.16C89.7187 156.16 84.6909 150.049 89.0831 147.116C89.0831 147.116 89.6769 144.309 93.6504 144.672C97.6239 145.035 99.9228 147.161 98.1377 147.792C96.68 148.31 94.7503 149.067 94.0919 149.328C94.0205 149.357 93.9566 149.404 93.9057 149.465C93.8547 149.526 93.8181 149.599 93.7988 149.678L93.559 150.644Z" fill="#041427"/>
<path d="M144.936 127.999C174.668 127.999 198.77 103.644 198.77 73.5992C198.77 43.5549 174.668 19.1992 144.936 19.1992C115.204 19.1992 91.1016 43.5549 91.1016 73.5992C91.1016 103.644 115.204 127.999 144.936 127.999Z" fill="#B3CAFF"/>
<path d="M134.428 119.478C134.428 119.478 125.903 135.17 113.404 137.6C113.404 137.6 120.244 127.918 120.137 112" fill="#B3CAFF"/>
<path d="M158.637 119.478C158.637 119.478 167.162 135.17 179.661 137.6C179.661 137.6 172.821 127.918 172.928 112" fill="#B3CAFF"/>
<path d="M128.065 67.2299C128.659 67.0333 136.406 65.6605 139.768 60.3627C143.129 55.0648 147.37 49.2697 148.938 48.683C150.506 48.0964 154.755 53.5669 152.017 58.6682C150.856 60.8302 150.324 62.1733 150.096 63.0071C150.053 63.1609 150.046 63.3226 150.075 63.4795C150.105 63.6364 150.17 63.7844 150.266 63.9118C150.362 64.0393 150.486 64.1427 150.629 64.2141C150.771 64.2855 150.928 64.3229 151.088 64.3234L166.529 64.2876C170.764 64.2876 174.077 68.1948 173.121 72.3282C172.923 73.2415 172.509 74.094 171.916 74.8148C171.701 75.0768 171.554 75.3877 171.488 75.7201C171.422 76.0525 171.438 76.3962 171.536 76.7207C171.85 77.7821 171.886 78.907 171.64 79.9865C171.394 81.0659 170.874 82.0634 170.131 82.8822C169.776 83.2827 169.585 83.8028 169.597 84.3384C169.632 85.5296 169.51 87.7631 168.302 89.4188C168.001 89.8431 167.87 90.3646 167.934 90.881C168.076 92.1437 167.978 94.535 165.623 96.0627C162.297 98.2218 142.859 97.0454 139.765 96.0627C136.671 95.08 130.782 95.2795 126.779 95.4671" fill="white"/>
<path d="M121.138 62.0791H128.383C128.758 62.0791 129.129 62.1535 129.476 62.2982C129.822 62.4428 130.137 62.6547 130.402 62.9219C130.668 63.1892 130.878 63.5064 131.022 63.8555C131.165 64.2046 131.239 64.5788 131.239 64.9567V95.6815C131.239 96.4447 130.938 97.1766 130.402 97.7163C129.867 98.2559 129.14 98.5591 128.383 98.5591H121.138C119.931 98.5591 118.773 98.0759 117.919 97.2158C117.066 96.3557 116.586 95.1892 116.586 93.9729V66.6713C116.585 66.0686 116.702 65.4715 116.931 64.9144C117.159 64.3573 117.494 63.851 117.917 63.4245C118.34 62.998 118.842 62.6596 119.395 62.4288C119.947 62.1979 120.54 62.0791 121.138 62.0791Z" fill="#082241"/>
</svg>
