<svg width="320" height="320" viewBox="0 0 320 320" fill="none" xmlns="http://www.w3.org/2000/svg">
<path d="M99.1385 147.223C97.0048 145.666 95.4258 147.338 95.4258 147.338L98.1101 149.76C98.1613 149.67 101.272 148.777 99.1385 147.223Z" fill="#041427"/>
<path d="M180.796 267.756L178.524 282.161C178.465 282.535 178.273 282.877 177.981 283.125C177.69 283.374 177.318 283.513 176.932 283.519H161.811C161.586 283.521 161.365 283.469 161.165 283.369C160.965 283.269 160.793 283.122 160.663 282.942C160.534 282.762 160.451 282.554 160.421 282.336C160.392 282.118 160.417 281.896 160.494 281.689C160.892 280.714 161.883 279.614 164.266 279.111C169.041 278.108 168.074 266.239 168.074 266.239" fill="#082241"/>
<path d="M166.243 276.179C166.777 276.406 167.275 276.707 167.722 277.074C167.907 277.228 168.177 276.965 167.989 276.811C167.52 276.419 166.995 276.097 166.431 275.857C166.209 275.766 166.017 276.087 166.243 276.179Z" fill="#2791E0"/>
<path d="M167.558 274.477C168.104 274.73 168.599 275.168 168.997 275.754C169.172 276.017 169.452 275.622 169.277 275.359C168.829 274.707 168.275 274.218 167.663 273.935C167.421 273.826 167.316 274.362 167.558 274.483V274.477Z" fill="#2791E0"/>
<path d="M167.583 272.892C168.076 272.984 168.548 273.107 168.99 273.259C169.243 273.347 169.474 273.127 169.225 273.039C168.748 272.876 168.238 272.744 167.705 272.647C167.42 272.594 167.298 272.839 167.583 272.897V272.892Z" fill="#2791E0"/>
<path d="M168.499 278.334L168.614 278.219C168.639 278.195 168.659 278.165 168.673 278.133C168.686 278.101 168.693 278.066 168.694 278.031C168.694 277.996 168.687 277.961 168.674 277.928C168.661 277.896 168.641 277.866 168.617 277.841C168.592 277.816 168.563 277.796 168.53 277.782C168.498 277.769 168.463 277.762 168.428 277.761C168.393 277.761 168.358 277.768 168.326 277.781C168.293 277.794 168.264 277.814 168.239 277.838L168.124 277.958C168.079 278.009 168.055 278.075 168.057 278.143C168.059 278.211 168.087 278.275 168.135 278.323C168.183 278.371 168.247 278.399 168.315 278.401C168.383 278.403 168.449 278.379 168.499 278.334Z" fill="#2791E0"/>
<path d="M235.957 256.639L245.99 267.464C246.253 267.748 246.403 268.114 246.414 268.497C246.425 268.879 246.296 269.253 246.05 269.551L236.449 281.083C236.309 281.256 236.128 281.393 235.921 281.482C235.715 281.572 235.489 281.611 235.264 281.596C235.038 281.582 234.82 281.514 234.627 281.399C234.434 281.283 234.273 281.124 234.157 280.935C233.633 280.016 233.385 278.566 234.497 276.429C236.721 272.161 226.665 265.409 226.665 265.409" fill="#082241"/>
<path d="M233.392 273.26C234.029 272.899 234.711 272.642 235.418 272.497C235.715 272.437 235.592 271.95 235.294 272.004C234.55 272.159 233.83 272.431 233.159 272.812C232.889 272.964 233.127 273.397 233.392 273.25V273.26Z" fill="#2791E0"/>
<path d="M232.755 271.336C233.344 271.132 234.018 271.008 234.718 270.976C235.027 270.961 235.032 270.702 234.718 270.723C233.933 270.755 233.176 270.89 232.512 271.116C232.251 271.207 232.512 271.43 232.755 271.341V271.336Z" fill="#2791E0"/>
<path d="M231.989 270.046C232.284 269.741 232.6 269.493 232.931 269.308C233.116 269.199 233.037 268.712 232.846 268.815C232.49 269.015 232.149 269.281 231.831 269.608C231.664 269.78 231.831 270.214 231.989 270.041V270.046Z" fill="#2791E0"/>
<path d="M236.854 272.4V272.24C236.817 271.922 236.169 271.917 236.225 272.24V272.4C236.269 272.718 236.917 272.723 236.854 272.4Z" fill="#2791E0"/>
<path d="M235.904 270.72C235.993 270.705 236.074 270.665 236.132 270.606C236.19 270.548 236.222 270.475 236.222 270.4C236.222 270.324 236.19 270.251 236.132 270.193C236.074 270.134 235.993 270.094 235.904 270.08C235.814 270.094 235.733 270.134 235.675 270.193C235.617 270.251 235.585 270.324 235.585 270.4C235.585 270.475 235.617 270.548 235.675 270.606C235.733 270.665 235.814 270.705 235.904 270.72Z" fill="#2791E0"/>
<path d="M198.637 186.881C198.637 186.881 202.988 224.579 212.362 238.127C221.737 251.675 234.951 264.961 234.951 264.961" stroke="#C9DCEE" stroke-width="20" stroke-miterlimit="10"/>
<path d="M151.492 175.245C150.845 174.715 150.166 174.226 149.461 173.779L146.745 169.549C146.639 169.369 146.466 169.238 146.264 169.185C146.063 169.132 145.849 169.161 145.668 169.265C145.49 169.372 145.361 169.546 145.309 169.748C145.256 169.95 145.284 170.164 145.386 170.346L146.678 172.349C146.318 172.214 145.95 172.103 145.577 172.016C143.891 171.291 142.201 170.442 140.917 169.137C140.385 168.592 139.55 169.433 140.087 169.978C140.966 170.841 141.97 171.566 143.064 172.129C142.685 172.285 142.343 172.52 142.058 172.817C141.102 172.335 140.173 171.8 139.276 171.215C139.209 171.176 139.135 171.15 139.058 171.139C138.981 171.129 138.903 171.133 138.828 171.153C138.753 171.173 138.683 171.207 138.621 171.254C138.56 171.301 138.508 171.36 138.469 171.428C138.429 171.495 138.404 171.569 138.393 171.647C138.383 171.724 138.387 171.803 138.407 171.878C138.426 171.954 138.46 172.024 138.507 172.087C138.554 172.149 138.612 172.201 138.679 172.241C139.551 172.805 140.452 173.323 141.379 173.791C141.23 174.117 141.146 174.469 141.132 174.828C140.39 174.506 139.677 174.12 139.001 173.675C138.934 173.635 138.861 173.609 138.784 173.599C138.707 173.588 138.629 173.593 138.554 173.612C138.479 173.632 138.409 173.666 138.347 173.713C138.285 173.761 138.233 173.819 138.194 173.887C138.155 173.954 138.129 174.029 138.119 174.106C138.108 174.183 138.113 174.262 138.132 174.337C138.152 174.413 138.186 174.484 138.233 174.546C138.28 174.608 138.338 174.66 138.405 174.7C139.344 175.316 140.348 175.825 141.398 176.218C141.564 176.609 141.775 176.978 142.027 177.319C141.259 177.007 140.484 176.706 139.709 176.422C139.56 176.38 139.4 176.398 139.264 176.473C139.128 176.548 139.026 176.673 138.981 176.823C138.942 176.972 138.962 177.131 139.036 177.267C139.11 177.402 139.233 177.504 139.379 177.552C140.854 178.096 142.313 178.681 143.752 179.318C143.861 179.37 143.981 179.393 144.102 179.386C144.934 180.038 145.82 180.618 146.749 181.12L151.492 175.245Z" fill="#D6AD6A"/>
<path d="M56.5627 207.241L45.7406 196.932C45.4566 196.662 45.0856 196.502 44.6947 196.482C44.3038 196.462 43.9187 196.583 43.6089 196.824L31.6291 206.147C31.45 206.284 31.3065 206.462 31.211 206.667C31.1154 206.871 31.0706 207.096 31.0804 207.322C31.0902 207.547 31.1543 207.767 31.2673 207.963C31.3802 208.158 31.5386 208.323 31.7289 208.444C32.6551 208.993 34.1241 209.278 36.3396 208.215C40.7507 206.087 47.4132 216.32 47.4132 216.32" fill="#2791E0"/>
<path d="M42.8404 209.35C42.4692 209.788 42.1626 210.292 41.9325 210.842C41.8154 211.113 42.171 211.352 42.2881 211.075C42.5011 210.564 42.7835 210.095 43.1249 209.684C43.3089 209.464 43.0161 209.131 42.832 209.35H42.8404Z" fill="#041427"/>
<path d="M40.9486 208.08C40.5509 208.478 40.2329 208.987 40.0197 209.566C39.9178 209.834 40.2388 210.07 40.3407 209.801C40.538 209.252 40.8354 208.767 41.2092 208.386C41.398 208.198 41.1337 207.868 40.9486 208.056V208.08Z" fill="#041427"/>
<path d="M39.6422 207.406C39.2667 207.69 38.9634 208.026 38.7478 208.397C38.6391 208.581 38.9985 208.745 39.103 208.558C39.3038 208.212 39.5874 207.897 39.9389 207.632C40.1311 207.49 39.8386 207.264 39.6463 207.406H39.6422Z" fill="#041427"/>
<path d="M90.2357 184.321C90.2357 184.321 94.0981 229.489 84.0304 232.135C73.9626 234.781 47.6416 208.333 47.6416 208.333" stroke="#005AAA" stroke-width="20" stroke-miterlimit="10"/>
<path d="M108.807 267.756L111.072 282.161C111.132 282.539 111.328 282.884 111.624 283.133C111.92 283.381 112.296 283.518 112.686 283.519H127.791C128.016 283.522 128.238 283.471 128.438 283.371C128.639 283.271 128.811 283.124 128.94 282.944C129.07 282.764 129.153 282.555 129.182 282.337C129.211 282.118 129.185 281.896 129.107 281.689C128.71 280.714 127.724 279.614 125.339 279.111C120.569 278.108 121.539 266.239 121.539 266.239" fill="#2791E0"/>
<path d="M90.6491 195.84C96.8066 195.84 101.798 190.826 101.798 184.64C101.798 178.455 96.8066 173.44 90.6491 173.44C84.4916 173.44 79.5 178.455 79.5 184.64C79.5 190.826 84.4916 195.84 90.6491 195.84Z" fill="#005AAA"/>
<path d="M90.5117 189.44C90.5117 189.44 106.333 219.503 108.959 231.145C111.586 242.787 115.178 270.72 115.178 270.72" stroke="#005AAA" stroke-width="20" stroke-miterlimit="10"/>
<path d="M93.6951 154.881L92.4209 161.281" stroke="#EFD09C" stroke-width="6" stroke-miterlimit="10"/>
<path d="M93.731 156.532C95.0332 159.375 95.7726 159.273 95.7726 159.273L96.7763 156.547C96.7763 156.547 92.8043 154.508 93.731 156.532Z" fill="#D6AD6A"/>
<path d="M95.8347 160.482L88.0445 160.014C86.0518 159.894 84.0879 160.537 82.5514 161.813C81.0149 163.088 80.0207 164.901 79.7706 166.884L77.5962 184.135C77.571 184.337 77.5883 184.541 77.6471 184.735C77.7059 184.93 77.8048 185.109 77.9375 185.263C78.0701 185.416 78.2336 185.54 78.4172 185.627C78.6008 185.713 78.8004 185.759 79.0032 185.763L102.478 186.24C103.02 186.25 103.545 186.046 103.938 185.672C104.331 185.297 104.561 184.782 104.576 184.239L104.976 170.472C105.048 167.945 104.134 165.488 102.428 163.624C100.721 161.759 98.3566 160.632 95.8347 160.482Z" fill="#082241"/>
<path d="M138.297 180.48L133.653 174.765C133.653 174.765 140.516 169.043 143.257 172.795C145.998 176.546 138.297 180.48 138.297 180.48Z" fill="#EFD09C"/>
<path d="M138.522 169.297L135.056 174.274C134.502 175.073 135.859 175.813 136.425 175.021L139.891 170.048C140.449 169.245 139.088 168.506 138.522 169.301V169.297Z" fill="#EFD09C"/>
<path d="M145.671 176.042C144.083 176.659 142.517 177.328 140.972 178.05C140.269 178.374 140.875 179.462 141.57 179.142C143.024 178.464 144.498 177.863 145.988 177.261C146.703 176.98 146.39 175.76 145.675 176.042H145.671Z" fill="#EFD09C"/>
<path d="M146.137 173.523C144.965 174.163 143.689 174.66 142.349 174.999C141.607 175.186 141.941 176.167 142.671 175.976C144.112 175.612 145.485 175.081 146.749 174.397C147.401 174.056 146.794 173.167 146.137 173.523Z" fill="#EFD09C"/>
<path d="M142.87 174.021C144.208 173.433 145.502 172.755 146.742 171.992C147.408 171.594 146.791 170.563 146.125 170.977C144.883 171.737 143.588 172.414 142.248 173.002C141.532 173.321 142.157 174.335 142.87 174.021Z" fill="#EFD09C"/>
<path d="M144.138 168.508C142.59 170.244 140.493 171.229 138.496 172.15C137.823 172.458 138.109 173.704 138.802 173.391C140.988 172.384 143.237 171.303 144.951 169.419C145.477 168.838 144.664 167.926 144.138 168.508Z" fill="#EFD09C"/>
<path d="M234.871 192.639L227.307 194.947C227.307 194.947 230.042 203.716 234.741 202.022C239.439 200.328 234.871 192.639 234.871 192.639Z" fill="#D6AD6A"/>
<path d="M229.813 202.134L229.853 195.945C229.853 194.95 228.638 194.95 228.619 195.945L228.579 202.134C228.579 203.125 229.792 203.129 229.813 202.134Z" fill="#D6AD6A"/>
<path d="M238.664 199.471C237.745 198.165 236.861 196.832 236.012 195.47C235.633 194.837 234.644 195.426 235.042 196.067C235.88 197.429 236.765 198.762 237.694 200.068C238.118 200.673 239.096 200.068 238.664 199.471Z" fill="#D6AD6A"/>
<path d="M238.082 202.559C237.518 201.134 236.777 199.804 235.881 198.61C235.42 197.992 234.629 198.88 235.087 199.498C235.916 200.616 236.599 201.86 237.114 203.193C237.405 203.929 238.369 203.295 238.082 202.559Z" fill="#D6AD6A"/>
<path d="M233.768 201.228C234.525 202.477 235.196 203.778 235.775 205.124C236.088 205.84 237.116 205.219 236.803 204.503C236.222 203.158 235.551 201.857 234.796 200.608C234.395 199.941 233.363 200.558 233.768 201.228Z" fill="#D6AD6A"/>
<path d="M234.279 205.378C233.756 203.135 232.365 201.161 231.006 199.293C230.568 198.698 229.517 199.259 229.959 199.858C231.276 201.65 232.622 203.526 233.126 205.678C233.293 206.382 234.464 206.083 234.296 205.378H234.279Z" fill="#D6AD6A"/>
<path d="M55.4293 185.599L61.0226 190.67C61.0226 190.67 55.0998 197.653 51.7375 194.278C48.3752 190.903 55.4293 185.599 55.4293 185.599Z" fill="#EFD09C"/>
<path d="M57.2806 197.339L59.6795 191.33C60.0567 190.38 58.778 189.546 58.3933 190.504L55.9944 196.508C55.6173 197.462 56.8997 198.292 57.2806 197.334V197.339Z" fill="#EFD09C"/>
<path d="M49.1303 191.288C50.4828 190.464 51.8125 189.593 53.1192 188.675C53.7294 188.262 53.1612 187.191 52.551 187.619C51.2316 188.529 49.9019 189.396 48.5621 190.221C47.9253 190.604 48.4973 191.664 49.1303 191.276V191.288Z" fill="#EFD09C"/>
<path d="M48.7487 194.388C49.8465 193.39 51.0792 192.553 52.4101 191.902C53.1519 191.538 52.505 190.433 51.7675 190.793C50.3392 191.498 49.0179 192.404 47.843 193.483C47.2349 194.037 48.1406 194.943 48.7487 194.388Z" fill="#EFD09C"/>
<path d="M51.8917 192.741C50.6914 193.57 49.548 194.483 48.4698 195.474C47.9119 195.99 48.7369 196.832 49.2948 196.32C50.2979 195.396 51.3625 194.545 52.481 193.773C53.0978 193.345 52.5164 192.314 51.8917 192.741Z" fill="#EFD09C"/>
<path d="M51.3906 198.141C52.8023 196.265 54.9052 194.986 56.9069 193.786C57.5896 193.374 56.9617 192.322 56.2748 192.733C54.075 194.053 51.8583 195.468 50.3117 197.524C49.8355 198.157 50.9186 198.758 51.3906 198.141Z" fill="#EFD09C"/>
<path d="M98.6118 152.664C98.6198 152.78 98.6108 152.897 98.5855 153.008C98.5602 153.119 98.519 153.221 98.4646 153.309C98.4101 153.397 98.3434 153.468 98.2687 153.518C98.1939 153.568 98.1127 153.597 98.0299 153.601L97.9775 152.524C97.9775 152.451 98.2423 152.332 98.2888 152.328C98.3259 152.318 98.364 152.319 98.4007 152.331C98.4375 152.342 98.4721 152.365 98.5025 152.396C98.5328 152.428 98.5582 152.468 98.577 152.514C98.5958 152.56 98.6076 152.611 98.6118 152.664Z" fill="#EFD09C"/>
<path d="M92.8143 145.155L93.0863 145.126C94.3198 144.995 95.5548 145.361 96.5196 146.144C97.4843 146.928 98.0997 148.064 98.2304 149.303L98.6941 153.698C98.7901 154.608 98.5225 155.518 97.9502 156.23C97.3779 156.941 96.5477 157.395 95.6424 157.491C94.0074 157.665 92.3706 157.18 91.0919 156.141C89.8132 155.103 88.9976 153.597 88.8243 151.954L88.6526 150.327C88.5872 149.713 88.6431 149.092 88.817 148.499C88.9909 147.907 89.2793 147.354 89.6659 146.874C90.0524 146.394 90.5295 145.995 91.0697 145.7C91.6099 145.405 92.2028 145.22 92.8143 145.155Z" fill="#EFD09C"/>
<path d="M95.466 153.156C95.7055 153.357 96.0441 153.51 96.4354 153.592C96.6997 153.647 96.8143 153.399 96.5499 153.331C96.2649 153.271 96.0175 153.161 95.8405 153.015C95.6775 152.882 95.303 153.015 95.466 153.146V153.156Z" fill="#041427"/>
<path d="M97.0178 151.68C97.1937 151.68 97.3363 151.537 97.3363 151.36C97.3363 151.183 97.1937 151.04 97.0178 151.04C96.8418 151.04 96.6992 151.183 96.6992 151.36C96.6992 151.537 96.8418 151.68 97.0178 151.68Z" fill="#041427"/>
<path d="M96.4612 150.401C96.6816 150.318 96.9132 150.258 97.1503 150.225C97.4765 150.179 97.3397 149.739 97.0083 149.762C96.7281 149.804 96.4556 149.879 96.1982 149.985C95.893 150.105 96.1561 150.499 96.4612 150.378V150.401Z" fill="#041427"/>
<path d="M91.947 191.951C93.5481 190.637 95.1109 189.272 96.6355 187.857C96.8254 187.682 96.5485 187.402 96.3586 187.573C94.834 188.985 93.2712 190.351 91.6701 191.671C91.4722 191.83 91.7532 192.114 91.947 191.951Z" fill="#041427"/>
<path d="M198.956 195.84C205.113 195.84 210.105 190.826 210.105 184.64C210.105 178.455 205.113 173.44 198.956 173.44C192.798 173.44 187.807 178.455 187.807 184.64C187.807 190.826 192.798 195.84 198.956 195.84Z" fill="#C9DCEE"/>
<path d="M201.184 186.239C201.184 186.239 183.929 215.009 181.294 226.701C178.659 238.392 174.426 270.719 174.426 270.719" stroke="#C9DCEE" stroke-width="20" stroke-miterlimit="10"/>
<path d="M199.091 153.278L199.091 161.278" stroke="#D6AD6A" stroke-width="6" stroke-miterlimit="10"/>
<path d="M195.976 155.776C194.933 158.619 194.047 159.361 194.047 159.361L193.54 155.792C193.54 155.792 196.718 153.752 195.976 155.776Z" fill="#041427"/>
<path d="M194.186 160.482L201.8 160.014C203.746 159.894 205.664 160.537 207.164 161.813C208.665 163.089 209.635 164.902 209.879 166.884L212.003 184.135C212.027 184.336 212.01 184.54 211.953 184.734C211.896 184.928 211.8 185.108 211.671 185.261C211.541 185.415 211.382 185.539 211.203 185.625C211.024 185.712 210.83 185.759 210.632 185.764L187.696 186.24C187.167 186.249 186.655 186.045 186.272 185.67C185.889 185.296 185.666 184.782 185.65 184.239L185.26 170.472C185.189 167.945 186.082 165.489 187.748 163.625C189.414 161.76 191.723 160.633 194.186 160.482Z" fill="#005AAA"/>
<path d="M191.056 151.863C191.02 151.958 190.998 152.062 190.991 152.169C190.984 152.277 190.992 152.385 191.016 152.487C191.039 152.59 191.077 152.685 191.127 152.766C191.177 152.847 191.238 152.912 191.306 152.959L191.624 152.054C191.645 151.997 191.446 151.756 191.409 151.733C191.38 151.708 191.347 151.691 191.314 151.683C191.28 151.676 191.246 151.678 191.213 151.69C191.18 151.703 191.149 151.724 191.122 151.754C191.095 151.784 191.073 151.821 191.056 151.863Z" fill="#D6AD6A"/>
<path d="M194.265 157.495C193.36 157.398 192.53 156.945 191.957 156.233C191.385 155.522 191.117 154.612 191.213 153.702L191.677 149.307C191.808 148.068 192.423 146.931 193.388 146.148C194.353 145.365 195.588 144.998 196.821 145.13L197.093 145.159C198.327 145.29 199.458 145.908 200.238 146.877C201.017 147.846 201.382 149.087 201.251 150.326L201.08 151.954C200.906 153.596 200.091 155.102 198.812 156.14C197.533 157.179 195.896 157.664 194.261 157.49L194.265 157.495Z" fill="#D6AD6A"/>
<path d="M193.824 153.644C193.626 153.802 193.359 153.915 193.058 153.969C193.005 153.979 192.959 154.002 192.931 154.033C192.903 154.065 192.896 154.103 192.911 154.138C192.926 154.173 192.961 154.203 193.01 154.221C193.058 154.239 193.116 154.244 193.17 154.235C193.541 154.169 193.874 154.031 194.124 153.84C194.299 153.706 194.004 153.51 193.824 153.644Z" fill="#041427"/>
<path d="M193.222 151.68C193.398 151.68 193.54 151.537 193.54 151.36C193.54 151.183 193.398 151.04 193.222 151.04C193.046 151.04 192.903 151.183 192.903 151.36C192.903 151.537 193.046 151.68 193.222 151.68Z" fill="#041427"/>
<path d="M194.043 149.986C193.784 149.881 193.51 149.806 193.229 149.765C192.903 149.719 192.761 150.157 193.092 150.203C193.33 150.234 193.561 150.293 193.78 150.379C194.08 150.499 194.348 150.106 194.043 149.986Z" fill="#041427"/>
<path d="M90.9658 169.599C90.9658 169.599 110.287 180.303 119.446 180.475C128.606 180.647 138.748 175.57 138.748 175.57" stroke="#082241" stroke-width="14" stroke-miterlimit="10"/>
<path d="M89.0604 203.178C91.7466 208.454 94.1614 213.864 96.2953 219.388C96.3828 219.623 96.7644 219.519 96.6928 219.284C94.5474 213.728 92.1193 208.286 89.4182 202.979C89.3029 202.756 88.965 202.951 89.0803 203.178H89.0604Z" fill="#041427"/>
<path d="M121.172 273.906C121.708 273.846 122.228 273.728 122.714 273.555C122.956 273.468 122.743 273.211 122.501 273.295C122.048 273.456 121.562 273.564 121.062 273.616C120.794 273.646 120.909 273.918 121.172 273.918V273.906Z" fill="#041427"/>
<path d="M121.738 275.829C122.301 275.82 122.854 275.707 123.356 275.501C123.586 275.405 123.384 275.123 123.153 275.218C122.716 275.403 122.232 275.503 121.738 275.51C121.484 275.51 121.48 275.839 121.738 275.839V275.829Z" fill="#041427"/>
<path d="M122.96 277.758C123.333 277.714 123.696 277.593 124.028 277.402C124.189 277.309 124.045 277.046 123.883 277.139C123.596 277.303 123.283 277.408 122.96 277.449C122.781 277.473 122.778 277.78 122.96 277.758Z" fill="#041427"/>
<path d="M80.8441 224.327C81.32 224.684 81.8315 224.995 82.3712 225.256C82.6061 225.372 82.8159 225.032 82.5809 224.916C82.0727 224.669 81.5895 224.378 81.1377 224.046C80.9322 223.89 80.6343 224.166 80.8441 224.327Z" fill="#041427"/>
<path d="M87.78 169.822C86.8929 170.03 75.7194 167.836 68.7961 173.875C64.0157 178.048 56.5625 190.079 56.5625 190.079" stroke="#082241" stroke-width="14" stroke-miterlimit="10"/>
<path d="M148.307 177.441C148.307 177.441 168.889 187.601 177.055 181.987C185.222 176.373 195.451 168.239 195.451 168.239" stroke="#005AAA" stroke-width="14" stroke-miterlimit="10"/>
<path d="M186.247 169.698C184.818 172.986 185.226 176.773 185.678 180.335C185.712 180.589 186.006 180.48 185.972 180.23C185.536 176.777 185.124 173.091 186.51 169.896C186.53 169.851 186.535 169.797 186.525 169.746C186.514 169.695 186.489 169.652 186.454 169.626C186.419 169.6 186.378 169.593 186.339 169.606C186.3 169.62 186.267 169.653 186.247 169.698Z" fill="#041427"/>
<path d="M185.574 181.759C185.659 181.759 185.74 181.726 185.8 181.666C185.859 181.606 185.893 181.524 185.893 181.439C185.893 181.354 185.859 181.273 185.8 181.213C185.74 181.153 185.659 181.119 185.574 181.119C185.49 181.119 185.409 181.153 185.349 181.213C185.289 181.273 185.256 181.354 185.256 181.439C185.256 181.524 185.289 181.606 185.349 181.666C185.409 181.726 185.49 181.759 185.574 181.759Z" fill="#041427"/>
<path d="M202.46 165.119C202.46 165.119 216.837 168.797 224.523 178.397C229.98 185.223 232.403 195.839 232.403 195.839" stroke="#005AAA" stroke-width="14" stroke-miterlimit="10"/>
<path d="M207.049 172.658L210.498 174.066C210.738 174.163 210.84 173.702 210.604 173.58L207.15 172.172C206.915 172.075 206.813 172.541 207.049 172.658Z" fill="#041427"/>
<path d="M191.714 148.519C192.67 148.513 193.614 148.32 194.489 147.954C194.664 147.882 194.861 147.88 195.037 147.946C195.214 148.013 195.356 148.143 195.433 148.308C195.632 148.722 195.855 149.124 196.101 149.514C196.155 149.6 196.229 149.674 196.316 149.73C196.404 149.785 196.504 149.821 196.608 149.835C196.712 149.849 196.818 149.84 196.919 149.81C197.019 149.779 197.111 149.727 197.187 149.658C197.245 149.592 197.317 149.537 197.398 149.497C197.478 149.458 197.566 149.434 197.657 149.428C197.747 149.422 197.838 149.433 197.924 149.461C198.009 149.489 198.088 149.534 198.156 149.592C198.9 150.122 198.351 151.222 197.806 151.612C197.709 151.684 197.635 151.78 197.59 151.889C197.545 151.998 197.531 152.117 197.549 152.232C197.777 153.773 198.404 158.594 197.806 161.075C197.78 161.18 197.78 161.289 197.807 161.394C197.833 161.499 197.885 161.596 197.958 161.678C198.03 161.76 198.122 161.824 198.226 161.866C198.33 161.908 198.442 161.925 198.554 161.917C200.357 161.777 203.991 161.282 206.009 159.507C206.121 159.412 206.199 159.285 206.231 159.145C206.263 159.005 206.248 158.858 206.188 158.727C205.96 158.212 205.618 157.393 205.744 157.35C205.87 157.307 206.298 157.845 206.652 158.298C206.711 158.373 206.786 158.436 206.872 158.482C206.958 158.528 207.053 158.556 207.151 158.565C207.249 158.574 207.348 158.563 207.441 158.533C207.535 158.503 207.621 158.455 207.693 158.391C208.479 157.717 209.797 156.476 210.078 155.548C210.485 154.206 205.427 151.175 203.303 148.102C201.293 145.192 198.827 144.689 197.871 144.88C197.765 144.905 197.655 144.905 197.549 144.88C196.65 144.646 192.593 143.823 191.039 147.579C190.995 147.684 190.98 147.798 190.993 147.91C191.006 148.022 191.048 148.129 191.115 148.222C191.181 148.315 191.271 148.391 191.376 148.443C191.48 148.494 191.597 148.521 191.714 148.519Z" fill="#041427"/>
<path d="M94.06 150.644C94.0491 150.691 94.0267 150.735 93.9951 150.77C93.9636 150.806 93.9239 150.832 93.8801 150.846C93.8362 150.86 93.7897 150.861 93.7452 150.85C93.7007 150.839 93.6596 150.815 93.6261 150.782C93.5225 150.65 93.3875 150.551 93.2355 150.494C93.0834 150.437 92.9199 150.426 92.7621 150.46C92.2027 150.684 91.7117 152.208 92.9524 152.941L92.2255 154.746C92.0563 155.165 91.7763 155.522 91.4199 155.773C91.0636 156.024 90.6464 156.159 90.2197 156.159C90.2197 156.159 85.1919 150.049 89.5841 147.116C89.5841 147.116 90.1778 144.309 94.1514 144.672C98.1249 145.034 100.424 147.161 98.6387 147.792C97.181 148.309 95.2513 149.067 94.5929 149.328C94.5215 149.357 94.4576 149.404 94.4066 149.465C94.3557 149.526 94.319 149.599 94.2998 149.678L94.06 150.644Z" fill="#041427"/>
<path d="M145.437 127.999C175.169 127.999 199.271 103.643 199.271 73.5989C199.271 43.5546 175.169 19.1989 145.437 19.1989C115.705 19.1989 91.6025 43.5546 91.6025 73.5989C91.6025 103.643 115.705 127.999 145.437 127.999Z" fill="#B3CAFF"/>
<path d="M134.927 119.478C134.927 119.478 126.402 135.17 113.903 137.6C113.903 137.6 120.743 127.918 120.636 112" fill="#B3CAFF"/>
<path d="M159.137 119.478C159.137 119.478 167.662 135.17 180.161 137.6C180.161 137.6 173.321 127.918 173.428 112" fill="#B3CAFF"/>
<path d="M128.564 67.2295C129.158 67.0329 136.905 65.6601 140.267 60.3622C143.628 55.0644 147.869 49.2693 149.437 48.6826C151.005 48.0959 155.254 53.5665 152.516 58.6678C151.355 60.8298 150.823 62.1729 150.595 63.0067C150.552 63.1605 150.545 63.3221 150.574 63.4791C150.604 63.636 150.669 63.784 150.765 63.9114C150.861 64.0388 150.985 64.1423 151.128 64.2137C151.27 64.2851 151.427 64.3225 151.587 64.323L167.028 64.2872C171.263 64.2872 174.577 68.1943 173.62 72.3278C173.422 73.2411 173.008 74.0936 172.415 74.8144C172.2 75.0763 172.053 75.3872 171.987 75.7197C171.921 76.0521 171.937 76.3957 172.035 76.7203C172.349 77.7817 172.385 78.9066 172.139 79.986C171.893 81.0655 171.373 82.063 170.63 82.8817C170.275 83.2823 170.084 83.8024 170.096 84.338C170.131 85.5292 170.009 87.7627 168.801 89.4184C168.5 89.8426 168.369 90.3642 168.433 90.8806C168.575 92.1433 168.477 94.5346 166.122 96.0623C162.797 98.2213 143.358 97.045 140.264 96.0623C137.17 95.0796 131.281 95.2791 127.278 95.4667" fill="white"/>
<path d="M121.637 62.0795H128.882C129.257 62.0795 129.628 62.154 129.975 62.2986C130.321 62.4432 130.636 62.6552 130.901 62.9224C131.167 63.1896 131.377 63.5068 131.521 63.8559C131.664 64.2051 131.738 64.5793 131.738 64.9572V95.6819C131.738 96.4451 131.437 97.177 130.901 97.7167C130.366 98.2563 129.639 98.5595 128.882 98.5595H121.637C120.43 98.5595 119.272 98.0763 118.418 97.2163C117.565 96.3562 117.085 95.1896 117.085 93.9733V66.6718C117.084 66.069 117.201 65.472 117.43 64.9148C117.658 64.3577 117.993 63.8514 118.416 63.4249C118.839 62.9984 119.341 62.6601 119.894 62.4292C120.446 62.1984 121.039 62.0795 121.637 62.0795Z" fill="#082241"/>
</svg>
