<svg width="320" height="320" viewBox="0 0 320 320" fill="none" xmlns="http://www.w3.org/2000/svg">
<path d="M99.1385 147.223C97.0048 145.666 95.4258 147.337 95.4258 147.337L98.1101 149.76C98.1613 149.67 101.272 148.777 99.1385 147.223Z" fill="#041427"/>
<path d="M180.797 267.756L178.525 282.161C178.466 282.535 178.274 282.877 177.982 283.125C177.691 283.374 177.319 283.513 176.933 283.519H161.812C161.587 283.521 161.366 283.469 161.166 283.369C160.966 283.269 160.794 283.122 160.664 282.942C160.535 282.763 160.452 282.555 160.422 282.336C160.393 282.118 160.418 281.896 160.495 281.689C160.893 280.714 161.884 279.614 164.267 279.111C169.042 278.108 168.075 266.239 168.075 266.239" fill="#082241"/>
<path d="M166.242 276.179C166.776 276.406 167.274 276.707 167.721 277.074C167.906 277.228 168.176 276.965 167.988 276.811C167.519 276.419 166.994 276.097 166.43 275.857C166.208 275.766 166.016 276.087 166.242 276.179Z" fill="#2791E0"/>
<path d="M167.559 274.477C168.105 274.73 168.6 275.168 168.998 275.754C169.173 276.017 169.453 275.622 169.278 275.359C168.83 274.707 168.276 274.218 167.664 273.935C167.422 273.826 167.317 274.362 167.559 274.483V274.477Z" fill="#2791E0"/>
<path d="M167.584 272.891C168.077 272.984 168.549 273.107 168.991 273.259C169.244 273.346 169.475 273.126 169.226 273.039C168.749 272.876 168.239 272.744 167.706 272.646C167.421 272.594 167.299 272.839 167.584 272.896V272.891Z" fill="#2791E0"/>
<path d="M168.501 278.334L168.616 278.219C168.641 278.195 168.661 278.165 168.675 278.133C168.688 278.1 168.695 278.066 168.696 278.031C168.696 277.995 168.689 277.961 168.676 277.928C168.663 277.896 168.643 277.866 168.619 277.841C168.594 277.816 168.565 277.796 168.532 277.782C168.5 277.769 168.465 277.761 168.43 277.761C168.395 277.761 168.36 277.768 168.328 277.781C168.295 277.794 168.266 277.814 168.241 277.838L168.126 277.958C168.081 278.009 168.057 278.075 168.059 278.143C168.061 278.211 168.089 278.275 168.137 278.323C168.184 278.371 168.249 278.399 168.317 278.401C168.385 278.403 168.451 278.379 168.501 278.334Z" fill="#2791E0"/>
<path d="M235.956 256.639L245.989 267.464C246.252 267.748 246.402 268.114 246.413 268.497C246.424 268.879 246.295 269.253 246.049 269.551L236.448 281.083C236.308 281.256 236.127 281.393 235.92 281.482C235.714 281.572 235.488 281.611 235.263 281.596C235.037 281.582 234.819 281.514 234.626 281.399C234.433 281.283 234.272 281.124 234.156 280.935C233.632 280.016 233.384 278.566 234.496 276.429C236.72 272.161 226.664 265.409 226.664 265.409" fill="#082241"/>
<path d="M233.391 273.26C234.028 272.899 234.71 272.642 235.417 272.497C235.714 272.437 235.591 271.95 235.293 272.004C234.549 272.159 233.829 272.431 233.158 272.812C232.888 272.964 233.126 273.397 233.391 273.25V273.26Z" fill="#2791E0"/>
<path d="M232.754 271.336C233.343 271.132 234.017 271.008 234.717 270.976C235.026 270.961 235.031 270.703 234.717 270.723C233.932 270.755 233.175 270.89 232.511 271.116C232.25 271.207 232.511 271.43 232.754 271.341V271.336Z" fill="#2791E0"/>
<path d="M231.989 270.046C232.284 269.741 232.6 269.493 232.931 269.308C233.116 269.2 233.037 268.712 232.846 268.816C232.49 269.015 232.149 269.281 231.831 269.608C231.664 269.781 231.831 270.214 231.989 270.042V270.046Z" fill="#2791E0"/>
<path d="M236.855 272.4V272.24C236.818 271.922 236.17 271.917 236.226 272.24V272.4C236.27 272.718 236.918 272.723 236.855 272.4Z" fill="#2791E0"/>
<path d="M235.905 270.72C235.994 270.705 236.075 270.665 236.133 270.606C236.191 270.548 236.223 270.475 236.223 270.4C236.223 270.324 236.191 270.251 236.133 270.193C236.075 270.134 235.994 270.094 235.905 270.08C235.815 270.094 235.734 270.134 235.676 270.193C235.618 270.251 235.586 270.324 235.586 270.4C235.586 270.475 235.618 270.548 235.676 270.606C235.734 270.665 235.815 270.705 235.905 270.72Z" fill="#2791E0"/>
<path d="M198.637 186.881C198.637 186.881 202.988 224.579 212.362 238.127C221.737 251.675 234.951 264.961 234.951 264.961" stroke="#C9DCEE" stroke-width="20" stroke-miterlimit="10"/>
<path d="M151.492 175.245C150.845 174.715 150.166 174.226 149.461 173.779L146.745 169.549C146.639 169.369 146.466 169.238 146.264 169.185C146.063 169.132 145.849 169.161 145.668 169.265C145.49 169.372 145.361 169.546 145.309 169.748C145.256 169.95 145.284 170.164 145.386 170.346L146.678 172.349C146.318 172.214 145.95 172.103 145.577 172.016C143.891 171.291 142.201 170.442 140.917 169.137C140.385 168.592 139.55 169.433 140.087 169.978C140.966 170.841 141.97 171.566 143.064 172.129C142.685 172.285 142.343 172.52 142.058 172.817C141.102 172.335 140.173 171.8 139.276 171.215C139.209 171.176 139.135 171.15 139.058 171.139C138.981 171.129 138.903 171.133 138.828 171.153C138.753 171.173 138.683 171.207 138.621 171.254C138.56 171.301 138.508 171.36 138.469 171.428C138.429 171.495 138.404 171.569 138.393 171.647C138.383 171.724 138.387 171.803 138.407 171.878C138.426 171.954 138.46 172.024 138.507 172.087C138.554 172.149 138.612 172.201 138.679 172.241C139.551 172.805 140.452 173.323 141.379 173.791C141.23 174.117 141.146 174.469 141.132 174.828C140.39 174.506 139.677 174.12 139.001 173.675C138.934 173.635 138.861 173.609 138.784 173.599C138.707 173.588 138.629 173.593 138.554 173.612C138.479 173.632 138.409 173.666 138.347 173.713C138.285 173.761 138.233 173.819 138.194 173.887C138.155 173.954 138.129 174.029 138.119 174.106C138.108 174.183 138.113 174.262 138.132 174.337C138.152 174.413 138.186 174.484 138.233 174.546C138.28 174.608 138.338 174.66 138.405 174.7C139.344 175.316 140.348 175.825 141.398 176.218C141.564 176.609 141.775 176.978 142.027 177.319C141.259 177.007 140.484 176.706 139.709 176.422C139.56 176.38 139.4 176.398 139.264 176.473C139.128 176.548 139.026 176.673 138.981 176.823C138.942 176.972 138.962 177.131 139.036 177.267C139.11 177.402 139.233 177.504 139.379 177.552C140.854 178.096 142.313 178.681 143.752 179.318C143.861 179.37 143.981 179.393 144.102 179.386C144.934 180.038 145.82 180.618 146.749 181.12L151.492 175.245Z" fill="#D6AD6A"/>
<path d="M56.5618 207.241L45.7396 196.932C45.4556 196.662 45.0846 196.502 44.6937 196.482C44.3028 196.462 43.9177 196.584 43.6079 196.824L31.6282 206.147C31.449 206.284 31.3055 206.462 31.21 206.667C31.1144 206.871 31.0696 207.096 31.0794 207.322C31.0893 207.547 31.1534 207.767 31.2663 207.963C31.3792 208.158 31.5376 208.323 31.728 208.444C32.6541 208.993 34.1231 209.278 36.3386 208.215C40.7497 206.087 47.4123 216.32 47.4123 216.32" fill="#2791E0"/>
<path d="M42.8414 209.35C42.4702 209.788 42.1636 210.292 41.9335 210.842C41.8164 211.113 42.172 211.352 42.2891 211.075C42.5021 210.564 42.7844 210.094 43.1258 209.684C43.3099 209.464 43.0171 209.131 42.833 209.35H42.8414Z" fill="#041427"/>
<path d="M40.9486 208.08C40.5509 208.478 40.2329 208.987 40.0197 209.566C39.9178 209.834 40.2388 210.07 40.3407 209.801C40.538 209.252 40.8354 208.767 41.2092 208.386C41.398 208.198 41.1337 207.868 40.9486 208.056V208.08Z" fill="#041427"/>
<path d="M39.6412 207.406C39.2657 207.69 38.9624 208.026 38.7468 208.397C38.6381 208.581 38.9976 208.745 39.102 208.558C39.3028 208.212 39.5864 207.897 39.9379 207.632C40.1302 207.49 39.8376 207.264 39.6454 207.406H39.6412Z" fill="#041427"/>
<path d="M90.2348 184.321C90.2348 184.321 94.0972 229.489 84.0294 232.135C73.9616 234.781 47.6406 208.333 47.6406 208.333" stroke="#005AAA" stroke-width="20" stroke-miterlimit="10"/>
<path d="M108.809 267.756L111.074 282.161C111.134 282.539 111.33 282.884 111.626 283.133C111.922 283.382 112.298 283.519 112.688 283.519H127.793C128.018 283.522 128.24 283.471 128.44 283.371C128.64 283.271 128.813 283.124 128.942 282.944C129.072 282.764 129.155 282.556 129.184 282.337C129.213 282.118 129.187 281.896 129.109 281.689C128.712 280.714 127.726 279.614 125.341 279.111C120.571 278.108 121.541 266.239 121.541 266.239" fill="#2791E0"/>
<path d="M90.6491 195.84C96.8066 195.84 101.798 190.826 101.798 184.64C101.798 178.455 96.8066 173.44 90.6491 173.44C84.4916 173.44 79.5 178.455 79.5 184.64C79.5 190.826 84.4916 195.84 90.6491 195.84Z" fill="#005AAA"/>
<path d="M90.5117 189.44C90.5117 189.44 106.333 219.503 108.959 231.145C111.586 242.787 115.178 270.72 115.178 270.72" stroke="#005AAA" stroke-width="20" stroke-miterlimit="10"/>
<path d="M93.6961 154.881L92.4219 161.281" stroke="#EFD09C" stroke-width="6" stroke-miterlimit="10"/>
<path d="M93.73 156.532C95.0322 159.375 95.7717 159.273 95.7717 159.273L96.7753 156.547C96.7753 156.547 92.8033 154.508 93.73 156.532Z" fill="#D6AD6A"/>
<path d="M95.8357 160.482L88.0454 160.014C86.0527 159.894 84.0889 160.537 82.5524 161.813C81.0158 163.088 80.0217 164.901 79.7716 166.884L77.5972 184.135C77.5719 184.337 77.5893 184.541 77.6481 184.735C77.7069 184.93 77.8058 185.109 77.9385 185.263C78.0711 185.416 78.2346 185.54 78.4181 185.627C78.6017 185.713 78.8014 185.759 79.0041 185.763L102.479 186.24C103.021 186.25 103.546 186.046 103.939 185.672C104.332 185.297 104.561 184.782 104.577 184.239L104.977 170.472C105.049 167.945 104.135 165.488 102.429 163.624C100.722 161.759 98.3576 160.632 95.8357 160.482Z" fill="#082241"/>
<path d="M138.296 180.48L133.652 174.765C133.652 174.765 140.516 169.043 143.256 172.795C145.997 176.546 138.296 180.48 138.296 180.48Z" fill="#EFD09C"/>
<path d="M138.522 169.297L135.056 174.274C134.502 175.073 135.859 175.813 136.425 175.021L139.891 170.048C140.449 169.245 139.088 168.506 138.522 169.301V169.297Z" fill="#EFD09C"/>
<path d="M145.672 176.042C144.084 176.659 142.518 177.328 140.973 178.05C140.27 178.374 140.876 179.462 141.571 179.142C143.025 178.464 144.499 177.863 145.989 177.261C146.704 176.98 146.391 175.76 145.676 176.042H145.672Z" fill="#EFD09C"/>
<path d="M146.139 173.523C144.967 174.163 143.691 174.66 142.351 174.999C141.609 175.187 141.943 176.167 142.673 175.976C144.114 175.613 145.487 175.081 146.751 174.397C147.403 174.056 146.795 173.168 146.139 173.523Z" fill="#EFD09C"/>
<path d="M142.872 174.021C144.21 173.433 145.504 172.755 146.744 171.992C147.41 171.594 146.793 170.563 146.127 170.977C144.885 171.737 143.59 172.414 142.25 173.002C141.534 173.321 142.159 174.335 142.872 174.021Z" fill="#EFD09C"/>
<path d="M144.138 168.508C142.59 170.244 140.493 171.229 138.496 172.15C137.823 172.458 138.109 173.704 138.802 173.391C140.988 172.384 143.237 171.303 144.951 169.419C145.477 168.838 144.664 167.926 144.138 168.508Z" fill="#EFD09C"/>
<path d="M234.873 192.639L227.309 194.947C227.309 194.947 230.044 203.716 234.743 202.022C239.441 200.328 234.873 192.639 234.873 192.639Z" fill="#D6AD6A"/>
<path d="M229.812 202.135L229.852 195.945C229.852 194.95 228.637 194.95 228.618 195.945L228.578 202.135C228.578 203.125 229.791 203.129 229.812 202.135Z" fill="#D6AD6A"/>
<path d="M238.664 199.471C237.745 198.165 236.861 196.832 236.012 195.47C235.633 194.837 234.644 195.426 235.042 196.067C235.88 197.429 236.765 198.762 237.694 200.068C238.118 200.673 239.096 200.068 238.664 199.471Z" fill="#D6AD6A"/>
<path d="M238.082 202.559C237.518 201.134 236.777 199.804 235.881 198.61C235.42 197.992 234.629 198.88 235.087 199.498C235.916 200.616 236.599 201.86 237.114 203.194C237.405 203.929 238.369 203.295 238.082 202.559Z" fill="#D6AD6A"/>
<path d="M233.768 201.228C234.525 202.477 235.196 203.778 235.775 205.124C236.088 205.84 237.116 205.219 236.803 204.503C236.222 203.158 235.551 201.857 234.796 200.608C234.395 199.941 233.363 200.558 233.768 201.228Z" fill="#D6AD6A"/>
<path d="M234.278 205.378C233.755 203.135 232.364 201.161 231.005 199.293C230.567 198.698 229.516 199.259 229.958 199.858C231.275 201.65 232.621 203.526 233.125 205.678C233.292 206.382 234.463 206.083 234.295 205.378H234.278Z" fill="#D6AD6A"/>
<path d="M55.4283 185.599L61.0216 190.67C61.0216 190.67 55.0988 197.653 51.7365 194.278C48.3742 190.903 55.4283 185.599 55.4283 185.599Z" fill="#EFD09C"/>
<path d="M57.2806 197.339L59.6795 191.33C60.0567 190.38 58.778 189.546 58.3933 190.504L55.9944 196.509C55.6173 197.462 56.8997 198.293 57.2806 197.334V197.339Z" fill="#EFD09C"/>
<path d="M49.1313 191.288C50.4838 190.464 51.8134 189.593 53.1202 188.675C53.7303 188.262 53.1621 187.19 52.552 187.619C51.2325 188.529 49.9029 189.396 48.5631 190.221C47.9263 190.604 48.4983 191.663 49.1313 191.276V191.288Z" fill="#EFD09C"/>
<path d="M48.7477 194.388C49.8455 193.39 51.0782 192.553 52.4092 191.902C53.1509 191.538 52.504 190.433 51.7666 190.793C50.3383 191.498 49.0169 192.404 47.8421 193.483C47.234 194.038 48.1396 194.943 48.7477 194.388Z" fill="#EFD09C"/>
<path d="M51.8927 192.741C50.6923 193.57 49.549 194.483 48.4708 195.474C47.9129 195.99 48.7379 196.832 49.2958 196.32C50.2989 195.396 51.3635 194.545 52.482 193.773C53.0988 193.345 52.5174 192.313 51.8927 192.741Z" fill="#EFD09C"/>
<path d="M51.3886 198.141C52.8004 196.265 54.9033 194.986 56.905 193.786C57.5877 193.374 56.9598 192.322 56.2729 192.733C54.0731 194.053 51.8564 195.468 50.3098 197.524C49.8336 198.157 50.9166 198.757 51.3886 198.141Z" fill="#EFD09C"/>
<path d="M98.6108 152.664C98.6188 152.78 98.6099 152.897 98.5845 153.008C98.5592 153.119 98.5181 153.221 98.4636 153.309C98.4091 153.397 98.3424 153.468 98.2677 153.518C98.1929 153.568 98.1117 153.597 98.0289 153.601L97.9766 152.524C97.9766 152.451 98.2413 152.332 98.2879 152.328C98.3249 152.318 98.363 152.319 98.3998 152.331C98.4365 152.342 98.4712 152.365 98.5015 152.396C98.5318 152.428 98.5572 152.468 98.576 152.514C98.5948 152.56 98.6067 152.611 98.6108 152.664Z" fill="#EFD09C"/>
<path d="M92.8153 145.155L93.0873 145.126C94.3208 144.995 95.5558 145.361 96.5205 146.144C97.4852 146.928 98.1007 148.064 98.2314 149.303L98.6951 153.699C98.7911 154.608 98.5235 155.518 97.9512 156.23C97.3788 156.941 96.5487 157.395 95.6434 157.491C94.0084 157.665 92.3715 157.18 91.0929 156.141C89.8142 155.103 88.9985 153.597 88.8252 151.954L88.6535 150.327C88.5882 149.713 88.6441 149.092 88.818 148.499C88.9918 147.907 89.2803 147.355 89.6668 146.874C90.0534 146.394 90.5304 145.995 91.0707 145.7C91.6109 145.405 92.2038 145.22 92.8153 145.155Z" fill="#EFD09C"/>
<path d="M95.466 153.156C95.7055 153.357 96.0441 153.51 96.4354 153.592C96.6997 153.647 96.8143 153.399 96.5499 153.331C96.2649 153.271 96.0175 153.161 95.8405 153.015C95.6775 152.882 95.303 153.015 95.466 153.146V153.156Z" fill="#041427"/>
<path d="M97.0178 151.68C97.1937 151.68 97.3363 151.537 97.3363 151.36C97.3363 151.183 97.1937 151.04 97.0178 151.04C96.8418 151.04 96.6992 151.183 96.6992 151.36C96.6992 151.537 96.8418 151.68 97.0178 151.68Z" fill="#041427"/>
<path d="M96.4612 150.401C96.6816 150.318 96.9132 150.259 97.1503 150.225C97.4765 150.179 97.3397 149.739 97.0083 149.762C96.7281 149.804 96.4556 149.879 96.1982 149.985C95.893 150.105 96.1561 150.499 96.4612 150.378V150.401Z" fill="#041427"/>
<path d="M91.9461 191.951C93.5471 190.637 95.11 189.272 96.6346 187.857C96.8245 187.682 96.5475 187.402 96.3576 187.573C94.833 188.985 93.2702 190.351 91.6691 191.671C91.4713 191.83 91.7522 192.114 91.9461 191.951Z" fill="#041427"/>
<path d="M198.958 195.84C205.115 195.84 210.107 190.826 210.107 184.64C210.107 178.455 205.115 173.44 198.958 173.44C192.8 173.44 187.809 178.455 187.809 184.64C187.809 190.826 192.8 195.84 198.958 195.84Z" fill="#C9DCEE"/>
<path d="M201.184 186.239C201.184 186.239 183.929 215.009 181.294 226.7C178.659 238.392 174.426 270.719 174.426 270.719" stroke="#C9DCEE" stroke-width="20" stroke-miterlimit="10"/>
<path d="M199.09 153.278L199.09 161.278" stroke="#D6AD6A" stroke-width="6" stroke-miterlimit="10"/>
<path d="M195.975 155.776C194.932 158.619 194.046 159.361 194.046 159.361L193.539 155.792C193.539 155.792 196.717 153.752 195.975 155.776Z" fill="#041427"/>
<path d="M194.184 160.482L201.798 160.014C203.744 159.894 205.662 160.537 207.162 161.813C208.663 163.089 209.633 164.902 209.877 166.884L212.001 184.135C212.025 184.336 212.009 184.54 211.951 184.734C211.894 184.928 211.798 185.108 211.669 185.261C211.539 185.415 211.38 185.539 211.201 185.625C211.023 185.712 210.828 185.759 210.63 185.764L187.694 186.24C187.165 186.249 186.653 186.045 186.27 185.67C185.887 185.296 185.664 184.782 185.648 184.239L185.258 170.472C185.187 167.945 186.08 165.489 187.746 163.625C189.412 161.76 191.721 160.633 194.184 160.482Z" fill="#005AAA"/>
<path d="M191.056 151.863C191.02 151.958 190.998 152.062 190.991 152.169C190.984 152.277 190.992 152.385 191.016 152.487C191.039 152.59 191.077 152.685 191.127 152.766C191.177 152.847 191.238 152.912 191.306 152.959L191.624 152.054C191.645 151.997 191.446 151.756 191.409 151.733C191.38 151.708 191.347 151.691 191.314 151.683C191.28 151.676 191.246 151.678 191.213 151.69C191.18 151.703 191.149 151.724 191.122 151.754C191.095 151.784 191.073 151.821 191.056 151.863Z" fill="#D6AD6A"/>
<path d="M194.265 157.495C193.36 157.398 192.53 156.945 191.957 156.233C191.385 155.522 191.117 154.612 191.213 153.702L191.677 149.307C191.808 148.068 192.423 146.931 193.388 146.148C194.353 145.365 195.588 144.998 196.821 145.13L197.093 145.159C198.327 145.29 199.458 145.908 200.238 146.877C201.017 147.846 201.382 149.087 201.251 150.326L201.08 151.954C200.906 153.596 200.091 155.102 198.812 156.141C197.533 157.179 195.896 157.664 194.261 157.49L194.265 157.495Z" fill="#D6AD6A"/>
<path d="M193.823 153.644C193.625 153.802 193.358 153.915 193.057 153.969C193.004 153.978 192.958 154.002 192.93 154.033C192.902 154.065 192.895 154.103 192.91 154.138C192.925 154.173 192.96 154.203 193.009 154.221C193.057 154.239 193.115 154.244 193.169 154.234C193.54 154.169 193.873 154.031 194.123 153.84C194.298 153.706 194.003 153.51 193.823 153.644Z" fill="#041427"/>
<path d="M193.221 151.68C193.397 151.68 193.539 151.537 193.539 151.36C193.539 151.183 193.397 151.04 193.221 151.04C193.045 151.04 192.902 151.183 192.902 151.36C192.902 151.537 193.045 151.68 193.221 151.68Z" fill="#041427"/>
<path d="M194.042 149.986C193.783 149.881 193.509 149.806 193.228 149.765C192.902 149.719 192.76 150.157 193.091 150.203C193.329 150.234 193.56 150.293 193.779 150.379C194.079 150.499 194.347 150.107 194.042 149.986Z" fill="#041427"/>
<path d="M90.9648 169.599C90.9648 169.599 110.286 180.303 119.446 180.475C128.605 180.647 138.747 175.57 138.747 175.57" stroke="#082241" stroke-width="14" stroke-miterlimit="10"/>
<path d="M89.0624 203.178C91.7486 208.454 94.1634 213.864 96.2973 219.388C96.3847 219.623 96.7664 219.519 96.6948 219.284C94.5493 213.728 92.1213 208.286 89.4201 202.979C89.3048 202.756 88.9669 202.951 89.0822 203.178H89.0624Z" fill="#041427"/>
<path d="M121.173 273.906C121.709 273.846 122.229 273.728 122.715 273.555C122.957 273.468 122.744 273.211 122.502 273.295C122.049 273.456 121.563 273.564 121.063 273.616C120.795 273.646 120.91 273.918 121.173 273.918V273.906Z" fill="#041427"/>
<path d="M121.739 275.829C122.302 275.82 122.855 275.707 123.357 275.5C123.587 275.405 123.385 275.123 123.154 275.218C122.717 275.403 122.233 275.503 121.739 275.51C121.485 275.51 121.481 275.839 121.739 275.839V275.829Z" fill="#041427"/>
<path d="M122.96 277.758C123.333 277.714 123.696 277.593 124.028 277.402C124.189 277.309 124.045 277.046 123.883 277.139C123.596 277.303 123.283 277.408 122.96 277.449C122.781 277.473 122.778 277.78 122.96 277.758Z" fill="#041427"/>
<path d="M80.845 224.327C81.3209 224.684 81.8324 224.995 82.3722 225.256C82.6071 225.372 82.8169 225.032 82.5819 224.916C82.0737 224.669 81.5905 224.378 81.1387 224.046C80.9331 223.89 80.6353 224.166 80.845 224.327Z" fill="#041427"/>
<path d="M87.78 169.822C86.8929 170.03 75.7194 167.836 68.7961 173.875C64.0157 178.048 56.5625 190.079 56.5625 190.079" stroke="#082241" stroke-width="14" stroke-miterlimit="10"/>
<path d="M148.309 177.441C148.309 177.441 168.891 187.601 177.057 181.987C185.224 176.373 195.453 168.239 195.453 168.239" stroke="#005AAA" stroke-width="14" stroke-miterlimit="10"/>
<path d="M186.245 169.698C184.816 172.986 185.224 176.773 185.676 180.334C185.71 180.589 186.004 180.48 185.97 180.23C185.534 176.777 185.122 173.09 186.508 169.896C186.528 169.851 186.533 169.797 186.523 169.746C186.512 169.695 186.487 169.652 186.452 169.626C186.417 169.6 186.376 169.593 186.337 169.606C186.298 169.62 186.265 169.653 186.245 169.698Z" fill="#041427"/>
<path d="M185.572 181.759C185.657 181.759 185.738 181.726 185.798 181.666C185.857 181.606 185.891 181.524 185.891 181.439C185.891 181.355 185.857 181.273 185.798 181.213C185.738 181.153 185.657 181.119 185.572 181.119C185.488 181.119 185.407 181.153 185.347 181.213C185.287 181.273 185.254 181.355 185.254 181.439C185.254 181.524 185.287 181.606 185.347 181.666C185.407 181.726 185.488 181.759 185.572 181.759Z" fill="#041427"/>
<path d="M202.461 165.119C202.461 165.119 216.838 168.797 224.524 178.397C229.981 185.223 232.404 195.839 232.404 195.839" stroke="#005AAA" stroke-width="14" stroke-miterlimit="10"/>
<path d="M207.048 172.658L210.498 174.066C210.737 174.163 210.839 173.702 210.603 173.58L207.149 172.172C206.914 172.075 206.812 172.541 207.048 172.658Z" fill="#041427"/>
<path d="M191.714 148.519C192.67 148.513 193.614 148.32 194.489 147.953C194.664 147.882 194.861 147.88 195.037 147.946C195.214 148.013 195.356 148.143 195.433 148.308C195.632 148.722 195.855 149.124 196.101 149.514C196.155 149.6 196.229 149.674 196.316 149.73C196.404 149.785 196.504 149.821 196.608 149.835C196.712 149.849 196.818 149.84 196.919 149.81C197.019 149.779 197.111 149.727 197.187 149.658C197.245 149.591 197.317 149.537 197.398 149.497C197.478 149.458 197.566 149.434 197.657 149.428C197.747 149.422 197.838 149.433 197.924 149.461C198.009 149.489 198.088 149.534 198.156 149.592C198.9 150.122 198.351 151.222 197.806 151.612C197.709 151.684 197.635 151.78 197.59 151.889C197.545 151.998 197.531 152.116 197.549 152.232C197.777 153.773 198.404 158.594 197.806 161.075C197.78 161.18 197.78 161.289 197.807 161.394C197.833 161.498 197.885 161.596 197.958 161.678C198.03 161.76 198.122 161.824 198.226 161.866C198.33 161.908 198.442 161.925 198.554 161.917C200.357 161.777 203.991 161.282 206.009 159.507C206.121 159.412 206.199 159.285 206.231 159.145C206.263 159.005 206.248 158.858 206.188 158.727C205.96 158.212 205.618 157.393 205.744 157.35C205.87 157.307 206.298 157.845 206.652 158.298C206.711 158.373 206.786 158.436 206.872 158.482C206.958 158.528 207.053 158.556 207.151 158.565C207.249 158.574 207.348 158.563 207.441 158.533C207.535 158.503 207.621 158.455 207.693 158.391C208.479 157.716 209.797 156.476 210.078 155.548C210.485 154.206 205.427 151.175 203.303 148.102C201.293 145.192 198.827 144.689 197.871 144.88C197.765 144.905 197.655 144.905 197.549 144.88C196.65 144.646 192.593 143.823 191.039 147.579C190.995 147.684 190.98 147.797 190.993 147.91C191.006 148.022 191.048 148.129 191.115 148.222C191.181 148.315 191.271 148.391 191.376 148.443C191.48 148.494 191.597 148.521 191.714 148.519Z" fill="#041427"/>
<path d="M94.061 150.643C94.05 150.691 94.0277 150.735 93.9961 150.77C93.9646 150.806 93.9249 150.832 93.8811 150.846C93.8372 150.86 93.7907 150.861 93.7462 150.85C93.7016 150.839 93.6606 150.815 93.6271 150.782C93.5235 150.65 93.3885 150.551 93.2365 150.494C93.0844 150.437 92.9209 150.426 92.7631 150.46C92.2036 150.684 91.7126 152.208 92.9534 152.941L92.2265 154.746C92.0573 155.165 91.7773 155.522 91.4209 155.773C91.0645 156.024 90.6474 156.158 90.2207 156.159C90.2207 156.159 85.1929 150.049 89.5851 147.116C89.5851 147.116 90.1788 144.309 94.1523 144.671C98.1259 145.034 100.425 147.16 98.6397 147.792C97.182 148.309 95.2523 149.067 94.5938 149.328C94.5224 149.357 94.4586 149.404 94.4076 149.465C94.3566 149.526 94.32 149.599 94.3008 149.678L94.061 150.643Z" fill="#041427"/>
<path d="M145.436 127.999C175.168 127.999 199.27 103.643 199.27 73.599C199.27 43.5547 175.168 19.199 145.436 19.199C115.704 19.199 91.6016 43.5547 91.6016 73.599C91.6016 103.643 115.704 127.999 145.436 127.999Z" fill="#B3CAFF"/>
<path d="M134.926 119.478C134.926 119.478 126.401 135.17 113.902 137.6C113.902 137.6 120.742 127.918 120.635 112" fill="#B3CAFF"/>
<path d="M159.137 119.478C159.137 119.478 167.662 135.17 180.161 137.6C180.161 137.6 173.321 127.918 173.428 112" fill="#B3CAFF"/>
<path d="M128.563 67.2294C129.157 67.0329 136.904 65.66 140.266 60.3622C143.627 55.0644 147.868 49.2692 149.436 48.6825C151.004 48.0959 155.253 53.5664 152.515 58.6677C151.354 60.8297 150.823 62.1728 150.594 63.0066C150.551 63.1604 150.544 63.3221 150.573 63.479C150.603 63.636 150.668 63.7839 150.764 63.9114C150.86 64.0388 150.984 64.1422 151.127 64.2136C151.269 64.285 151.426 64.3224 151.586 64.3229L167.027 64.2872C171.262 64.2872 174.576 68.1943 173.619 72.3277C173.421 73.241 173.007 74.0935 172.414 74.8143C172.199 75.0763 172.052 75.3872 171.986 75.7196C171.92 76.052 171.936 76.3957 172.034 76.7202C172.348 77.7816 172.385 78.9065 172.138 79.986C171.892 81.0655 171.372 82.0629 170.629 82.8817C170.274 83.2822 170.083 83.8023 170.095 84.3379C170.13 85.5291 170.008 87.7626 168.8 89.4184C168.499 89.8426 168.368 90.3641 168.432 90.8805C168.574 92.1432 168.476 94.5345 166.121 96.0622C162.796 98.2213 143.357 97.045 140.263 96.0622C137.169 95.0795 131.28 95.279 127.277 95.4666" fill="white"/>
<path d="M121.638 62.0796H128.883C129.258 62.0796 129.629 62.154 129.976 62.2986C130.322 62.4433 130.637 62.6552 130.902 62.9224C131.168 63.1896 131.378 63.5069 131.522 63.856C131.665 64.2051 131.739 64.5793 131.739 64.9572V95.6819C131.739 96.4451 131.438 97.1771 130.902 97.7167C130.367 98.2564 129.64 98.5596 128.883 98.5596H121.638C120.431 98.5596 119.273 98.0764 118.419 97.2163C117.566 96.3562 117.086 95.1897 117.086 93.9734V66.6718C117.085 66.069 117.202 65.472 117.431 64.9149C117.659 64.3578 117.994 63.8515 118.417 63.425C118.84 62.9985 119.342 62.6601 119.895 62.4293C120.447 62.1984 121.04 62.0796 121.638 62.0796Z" fill="#082241"/>
</svg>
