<svg width="25" height="24" viewBox="0 0 25 24" fill="none" xmlns="http://www.w3.org/2000/svg">
<g id="ShieldWarning">
<path id="Vector" d="M4.1582 10.7531V5.25C4.1582 5.05109 4.23722 4.86032 4.37787 4.71967C4.51853 4.57902 4.70929 4.5 4.9082 4.5H19.9082C20.1071 4.5 20.2979 4.57902 20.4385 4.71967C20.5792 4.86032 20.6582 5.05109 20.6582 5.25V10.7531C20.6582 18.6281 13.9738 21.2344 12.6426 21.675C12.4913 21.731 12.3251 21.731 12.1738 21.675C10.8426 21.2344 4.1582 18.6281 4.1582 10.7531Z" stroke="#041427" stroke-width="1.5" stroke-linecap="round" stroke-linejoin="round"/>
<path id="Vector_2" d="M12.4082 9V12.75" stroke="#041427" stroke-width="1.5" stroke-linecap="round" stroke-linejoin="round"/>
<path id="Vector_3" d="M12.4082 16.5C12.8224 16.5 13.1582 16.1642 13.1582 15.75C13.1582 15.3358 12.8224 15 12.4082 15C11.994 15 11.6582 15.3358 11.6582 15.75C11.6582 16.1642 11.994 16.5 12.4082 16.5Z" fill="#041427"/>
</g>
</svg>
