<svg width="376" height="375" viewBox="0 0 376 375" fill="none" xmlns="http://www.w3.org/2000/svg">
<path d="M223.435 290.924C223.435 290.924 241.657 294.573 242.935 296.793C243.798 298.293 242.482 303.089 242.905 306.73C242.959 307.166 243.149 307.574 243.449 307.895C243.748 308.216 244.142 308.433 244.573 308.517C245.004 308.6 245.451 308.544 245.849 308.358C246.246 308.172 246.575 307.865 246.787 307.48L259.979 283.544C260.269 283.017 260.437 282.433 260.472 281.833C260.506 281.232 260.405 280.632 260.177 280.076C259.949 279.52 259.6 279.022 259.154 278.619C258.708 278.216 258.178 277.918 257.602 277.746C249.217 275.26 232.064 270.228 224.755 268.473" fill="#2791E0"/>
<path d="M224.74 268.499L223.435 290.939C223.435 290.939 231.277 292.544 237.07 294.228C238.878 288.978 242.643 278.883 239.077 272.381C233.429 270.749 228.067 269.283 224.74 268.499Z" fill="#005AAA"/>
<path d="M232.342 293.471C232.541 292.627 232.849 291.813 233.257 291.049L232.916 291.004C233.394 292.221 233.98 293.393 234.667 294.506C234.687 294.537 234.715 294.562 234.748 294.578C234.781 294.593 234.818 294.599 234.854 294.594C234.891 294.59 234.925 294.575 234.953 294.551C234.981 294.527 235.002 294.496 235.012 294.461C235.334 293.642 235.71 292.845 236.137 292.076L235.792 292.031C236.312 293.301 236.976 294.506 237.772 295.624C237.847 295.725 238.035 295.766 238.099 295.624L239.257 292.999H238.931L240.607 296.884C240.671 297.026 240.859 296.981 240.934 296.884C241.508 296.112 241.949 295.251 242.239 294.334C242.314 294.105 241.954 294.007 241.864 294.236C241.58 295.121 241.15 295.953 240.592 296.696H240.919L239.242 292.811C239.225 292.783 239.201 292.76 239.173 292.744C239.144 292.728 239.112 292.72 239.079 292.72C239.047 292.72 239.014 292.728 238.986 292.744C238.957 292.76 238.933 292.783 238.916 292.811L237.757 295.436H238.084C237.302 294.347 236.65 293.17 236.141 291.93C236.13 291.895 236.11 291.864 236.082 291.84C236.054 291.816 236.019 291.801 235.983 291.796C235.947 291.792 235.91 291.797 235.877 291.813C235.843 291.829 235.816 291.854 235.796 291.885C235.366 292.69 234.988 293.522 234.664 294.375L235.009 294.33C234.335 293.248 233.76 292.107 233.291 290.921C233.281 290.886 233.261 290.854 233.233 290.83C233.206 290.806 233.172 290.791 233.135 290.786C233.099 290.782 233.062 290.788 233.029 290.803C232.996 290.819 232.969 290.845 232.95 290.876C232.524 291.667 232.204 292.511 231.997 293.385C231.941 293.621 232.301 293.719 232.372 293.486L232.342 293.471Z" fill="#041427"/>
<path d="M233.545 289.504C233.595 289.504 233.643 289.484 233.679 289.449C233.714 289.414 233.734 289.366 233.734 289.316C233.734 289.265 233.714 289.217 233.679 289.182C233.643 289.147 233.595 289.127 233.545 289.127C233.495 289.127 233.447 289.147 233.412 289.182C233.376 289.217 233.356 289.265 233.356 289.316C233.356 289.366 233.376 289.414 233.412 289.449C233.447 289.484 233.495 289.504 233.545 289.504Z" fill="#041427"/>
<path d="M236.495 290.217C236.545 290.217 236.593 290.197 236.628 290.161C236.664 290.126 236.684 290.078 236.684 290.028C236.684 289.978 236.664 289.93 236.628 289.895C236.593 289.859 236.545 289.839 236.495 289.839C236.445 289.839 236.397 289.859 236.361 289.895C236.326 289.93 236.306 289.978 236.306 290.028C236.306 290.078 236.326 290.126 236.361 290.161C236.397 290.197 236.445 290.217 236.495 290.217Z" fill="#041427"/>
<path d="M239.877 291.342C239.927 291.342 239.975 291.322 240.011 291.287C240.046 291.251 240.066 291.203 240.066 291.153C240.066 291.103 240.046 291.055 240.011 291.02C239.975 290.984 239.927 290.965 239.877 290.965C239.827 290.965 239.779 290.984 239.744 291.02C239.708 291.055 239.689 291.103 239.689 291.153C239.689 291.203 239.708 291.251 239.744 291.287C239.779 291.322 239.827 291.342 239.877 291.342Z" fill="#041427"/>
<path d="M243.107 292.56C243.157 292.56 243.205 292.541 243.24 292.505C243.275 292.47 243.295 292.422 243.295 292.372C243.295 292.322 243.275 292.274 243.24 292.238C243.205 292.203 243.157 292.183 243.107 292.183C243.056 292.183 243.008 292.203 242.973 292.238C242.938 292.274 242.918 292.322 242.918 292.372C242.918 292.422 242.938 292.47 242.973 292.505C243.008 292.541 243.056 292.56 243.107 292.56Z" fill="#041427"/>
<path d="M193.598 155.29C193.598 155.29 155.306 222.606 154.909 240.933C154.511 259.259 234.581 282.558 234.581 282.558" stroke="#041427" stroke-width="30" stroke-miterlimit="10"/>
<path d="M192.29 179.522C201.463 179.522 208.899 172.086 208.899 162.913C208.899 153.741 201.463 146.305 192.29 146.305C183.118 146.305 175.682 153.741 175.682 162.913C175.682 172.086 183.118 179.522 192.29 179.522Z" fill="#E7A54F"/>
<path d="M181.312 102.139C181.312 102.139 177.671 110.584 175.173 114.409C175.022 114.642 174.923 114.906 174.883 115.181C174.843 115.456 174.862 115.736 174.94 116.003C175.018 116.27 175.153 116.517 175.335 116.727C175.517 116.938 175.742 117.106 175.995 117.221C177.626 117.971 179.985 118.8 182.37 118.8L183.011 115.658V118.8C187.751 119.614 189.712 119.449 190.717 117.758C191.842 115.883 187.751 98.2577 187.751 98.2577" fill="#041427"/>
<path d="M190.726 313.976C190.726 313.976 196.321 331.698 194.99 333.877C194.082 335.377 189.26 336.502 186.275 338.647C185.924 338.905 185.664 339.267 185.53 339.681C185.396 340.096 185.396 340.542 185.529 340.956C185.663 341.371 185.923 341.733 186.274 341.991C186.624 342.25 187.047 342.392 187.482 342.397H214.809C215.409 342.397 216.002 342.263 216.544 342.004C217.086 341.745 217.563 341.367 217.94 340.9C218.317 340.432 218.585 339.886 218.723 339.301C218.861 338.717 218.866 338.109 218.739 337.522C216.864 328.976 212.997 311.523 211.006 304.278" fill="#2791E0"/>
<path d="M211.009 304.288L190.729 313.974C190.729 313.974 193.107 321.617 194.427 327.508C199.902 326.552 210.552 324.977 214.531 318.718C213.211 312.995 211.917 307.584 211.009 304.288Z" fill="#005AAA"/>
<path d="M192.803 323.004C193.637 322.769 194.498 322.643 195.364 322.629L195.233 322.307C194.397 323.312 193.653 324.392 193.013 325.532C192.953 325.644 193.013 325.836 193.174 325.817C194.063 325.701 194.959 325.644 195.856 325.644L195.721 325.322C194.861 326.392 194.126 327.557 193.531 328.794C193.478 328.907 193.531 329.087 193.696 329.076L196.549 328.824L196.414 328.506L193.823 331.873C193.748 331.967 193.748 332.166 193.906 332.188C194.875 332.32 195.859 332.292 196.819 332.106C197.056 332.061 196.958 331.701 196.722 331.731C195.827 331.907 194.91 331.933 194.007 331.809L194.089 332.124L196.681 328.783C196.767 328.667 196.729 328.446 196.549 328.461L193.696 328.712L193.857 328.993C194.434 327.784 195.149 326.645 195.987 325.599C196.011 325.573 196.027 325.54 196.033 325.504C196.039 325.469 196.035 325.432 196.021 325.399C196.008 325.365 195.985 325.337 195.955 325.316C195.926 325.295 195.891 325.283 195.856 325.281C194.959 325.28 194.063 325.338 193.174 325.453L193.336 325.734C193.96 324.622 194.683 323.568 195.496 322.584C195.521 322.558 195.539 322.525 195.546 322.489C195.553 322.453 195.549 322.416 195.535 322.382C195.521 322.348 195.497 322.319 195.467 322.298C195.437 322.277 195.401 322.266 195.364 322.266C194.465 322.274 193.571 322.4 192.706 322.641C192.656 322.654 192.613 322.686 192.587 322.73C192.561 322.774 192.554 322.827 192.567 322.877C192.58 322.927 192.612 322.969 192.656 322.995C192.7 323.021 192.753 323.029 192.803 323.016V323.004Z" fill="#041427"/>
<path d="M196.997 322.237C197.047 322.237 197.095 322.217 197.131 322.182C197.166 322.146 197.186 322.098 197.186 322.048C197.186 321.998 197.166 321.95 197.131 321.915C197.095 321.879 197.047 321.859 196.997 321.859C196.947 321.859 196.899 321.879 196.864 321.915C196.828 321.95 196.809 321.998 196.809 322.048C196.809 322.098 196.828 322.146 196.864 322.182C196.899 322.217 196.947 322.237 196.997 322.237Z" fill="#041427"/>
<path d="M197.81 325.17C197.86 325.17 197.908 325.15 197.943 325.115C197.978 325.079 197.998 325.031 197.998 324.981C197.998 324.931 197.978 324.883 197.943 324.848C197.908 324.812 197.86 324.792 197.81 324.792C197.759 324.792 197.712 324.812 197.676 324.848C197.641 324.883 197.621 324.931 197.621 324.981C197.621 325.031 197.641 325.079 197.676 325.115C197.712 325.15 197.759 325.17 197.81 325.17Z" fill="#041427"/>
<path d="M198.462 328.672C198.512 328.672 198.56 328.652 198.596 328.617C198.631 328.582 198.651 328.534 198.651 328.483C198.651 328.433 198.631 328.385 198.596 328.35C198.56 328.315 198.512 328.295 198.462 328.295C198.412 328.295 198.364 328.315 198.329 328.35C198.293 328.385 198.273 328.433 198.273 328.483C198.273 328.534 198.293 328.582 198.329 328.617C198.364 328.652 198.412 328.672 198.462 328.672Z" fill="#041427"/>
<path d="M198.955 332.091C199.005 332.091 199.053 332.071 199.088 332.036C199.124 332.001 199.143 331.953 199.143 331.903C199.143 331.853 199.124 331.805 199.088 331.769C199.053 331.734 199.005 331.714 198.955 331.714C198.905 331.714 198.857 331.734 198.821 331.769C198.786 331.805 198.766 331.853 198.766 331.903C198.766 331.953 198.786 332.001 198.821 332.036C198.857 332.071 198.905 332.091 198.955 332.091Z" fill="#041427"/>
<path d="M193.279 156.818C193.279 156.818 186.092 226.698 188.51 246.54C192.26 277.327 202.625 318.952 202.625 318.952" stroke="#082241" stroke-width="30" stroke-miterlimit="10"/>
<path d="M233.284 139.826L233.285 139.823C234.733 134.428 241.577 132.673 245.604 136.605C252.822 143.659 258.759 148.3 263.594 152.081C264.334 152.66 265.048 153.218 265.737 153.762C270.933 157.863 274.661 161.106 277.32 165.897L277.32 165.897C278.354 167.761 278.695 170.171 278.427 173.006C278.159 175.838 277.286 179.057 275.936 182.501C273.235 189.388 268.654 197.11 263.328 204.329C258.004 211.547 251.952 218.241 246.326 223.078C243.512 225.497 240.816 227.443 238.38 228.758C235.933 230.08 233.799 230.737 232.095 230.653C228.595 230.479 225.245 228.493 222.071 225.308C218.902 222.127 215.96 217.801 213.281 213.058C209.134 205.717 205.655 197.453 202.947 191.02C202.154 189.137 201.428 187.41 200.77 185.91C199.321 182.607 198.402 180.375 197.944 178.825C197.475 177.239 197.546 176.54 197.81 176.148C197.944 175.95 198.163 175.776 198.521 175.606C198.883 175.435 199.346 175.286 199.936 175.114C200.088 175.069 200.248 175.023 200.414 174.976C201.518 174.66 202.921 174.258 204.556 173.537C206.485 172.686 209.127 170.628 212 167.962C214.888 165.281 218.055 161.942 221.041 158.478C224.026 155.014 226.836 151.417 229.008 148.22C231.165 145.043 232.736 142.199 233.177 140.258L233.178 140.254C233.209 140.11 233.245 139.968 233.284 139.826Z" fill="#2791E0" stroke="#2791E0"/>
<path d="M277.756 165.656C272.716 156.57 263.918 152.977 249.346 139.5C249.346 139.5 265.37 155.872 251.075 179.546C236.78 203.22 200.311 186.112 200.311 186.112C206.093 199.308 217.362 230.422 232.07 231.153C246.777 231.885 286.561 181.519 277.756 165.656Z" fill="#1C7EC7"/>
<path d="M176.96 156.513L207.95 175.826C207.95 175.826 211.737 159.761 208.134 154.691" fill="#2791E0"/>
<path d="M192.148 112.367C192.849 115.824 192.721 121.832 193.603 125.237" stroke="#EFD09C" stroke-width="8" stroke-miterlimit="10"/>
<path d="M186.922 115.836L186.588 119.253C186.588 119.253 193.522 120.205 194.508 114.97C192.132 116.044 189.479 116.347 186.922 115.836Z" fill="#041427"/>
<path d="M192.74 97.2914C193.815 97.4988 194.838 97.916 195.751 98.5193C196.665 99.1226 197.45 99.9001 198.063 100.807C198.675 101.714 199.103 102.733 199.321 103.806C199.539 104.879 199.544 105.984 199.335 107.058L198.843 109.594C198.302 112.385 196.674 114.847 194.317 116.439C191.961 118.03 189.069 118.62 186.277 118.078C185.512 117.93 184.784 117.633 184.134 117.203C183.484 116.773 182.925 116.219 182.489 115.574C182.053 114.928 181.749 114.203 181.593 113.439C181.437 112.676 181.433 111.889 181.582 111.124L182.985 103.888C183.192 102.814 183.608 101.792 184.211 100.879C184.813 99.9663 185.59 99.1813 186.496 98.5687C187.402 97.9561 188.419 97.528 189.491 97.3088C190.562 97.0897 191.666 97.0837 192.74 97.2914Z" fill="#EFD09C"/>
<path d="M185.827 107.315C186.16 107.315 186.431 107.045 186.431 106.712C186.431 106.378 186.16 106.108 185.827 106.108C185.493 106.108 185.223 106.378 185.223 106.712C185.223 107.045 185.493 107.315 185.827 107.315Z" fill="#041427"/>
<path d="M186.009 104.191C186.313 104.251 186.607 104.355 186.882 104.498C187.31 104.719 187.689 104.074 187.257 103.849C186.925 103.676 186.57 103.55 186.204 103.474C185.735 103.373 185.532 104.097 186.005 104.194L186.009 104.191Z" fill="#041427"/>
<path d="M182.109 108.751C182.057 109.624 182.859 110.873 183.913 110.738L183.887 108.319C183.887 108.154 183.088 107.944 182.957 107.944C182.847 107.937 182.737 107.952 182.633 107.989C182.53 108.026 182.435 108.084 182.355 108.16C182.275 108.236 182.212 108.328 182.17 108.43C182.128 108.531 182.107 108.641 182.109 108.751Z" fill="#EFD09C"/>
<path d="M204.278 123.228L204.278 123.228C206.015 123.204 207.742 123.684 209.343 124.645C210.946 125.607 212.388 127.03 213.562 128.829C214.737 130.627 215.613 132.752 216.125 135.061C216.637 137.37 216.772 139.802 216.52 142.189L213.596 169.856L213.596 169.857C213.483 170.934 213.069 171.885 212.469 172.526C211.873 173.161 211.154 173.432 210.462 173.349L210.462 173.349L175.767 169.207L175.766 169.207C175.118 169.13 174.474 168.74 173.969 168.048C173.464 167.354 173.147 166.421 173.097 165.413L173.097 165.412L171.642 136.691L171.642 136.691C171.556 135.002 171.729 133.309 172.147 131.716C172.566 130.122 173.22 128.668 174.066 127.44C174.911 126.212 175.927 125.241 177.044 124.575C178.161 123.911 179.357 123.564 180.562 123.548C180.562 123.548 180.562 123.548 180.562 123.548L204.278 123.228Z" fill="#005AAA" stroke="#005AAA"/>
<path d="M185.143 110.821C186.072 110.44 186.921 109.887 187.644 109.19C187.993 108.856 187.46 108.328 187.112 108.661C186.485 109.271 185.75 109.758 184.944 110.098C184.505 110.278 184.7 111.005 185.143 110.821Z" fill="#041427"/>
<path d="M149.764 108.152C149.693 108.955 150.837 112.862 149.228 118.277" stroke="#EFD09C" stroke-width="4" stroke-miterlimit="10" stroke-linecap="round"/>
<path d="M140.1 130.358L152.1 120.646C152.1 120.646 146.7 104.783 138.66 108.211C130.62 111.638 140.1 130.358 140.1 130.358Z" fill="#EFD09C"/>
<path d="M136.144 103.937C136.144 103.937 143.4 104.47 148.002 113.894" stroke="#EFD09C" stroke-width="4" stroke-miterlimit="10" stroke-linecap="round"/>
<path d="M140.581 109.827C140.521 109.741 136.393 107.134 133.081 107.243" stroke="#EFD09C" stroke-width="4" stroke-miterlimit="10" stroke-linecap="round"/>
<path d="M137.425 112.873C137.354 112.798 134.8 110.402 131.556 111.054" stroke="#EFD09C" stroke-width="4" stroke-miterlimit="10" stroke-linecap="round"/>
<path d="M136.793 117.71C136.733 117.628 134.6 114.838 131.303 114.947" stroke="#EFD09C" stroke-width="4" stroke-miterlimit="10" stroke-linecap="round"/>
<path d="M222.39 200.251C222.724 199.52 222.956 195.455 226.279 190.902" stroke="#EFD09C" stroke-width="4" stroke-miterlimit="10" stroke-linecap="round"/>
<path d="M238.928 182.569L224.381 187.711C224.381 187.711 224.164 204.469 232.886 203.929C241.609 203.389 238.928 182.569 238.928 182.569Z" fill="#EFD09C"/>
<path d="M225.972 195.437C227.157 205.862 233.814 208.791 233.814 208.791" stroke="#EFD09C" stroke-width="4" stroke-miterlimit="10" stroke-linecap="round"/>
<path d="M231.605 201.749C231.631 201.846 234.654 205.683 237.796 206.684" stroke="#EFD09C" stroke-width="4" stroke-miterlimit="10" stroke-linecap="round"/>
<path d="M235.594 199.945C235.639 200.038 237.251 203.155 240.517 203.62" stroke="#EFD09C" stroke-width="4" stroke-miterlimit="10" stroke-linecap="round"/>
<path d="M237.804 195.593C237.83 195.691 238.907 199.032 242.049 200.033" stroke="#EFD09C" stroke-width="4" stroke-miterlimit="10" stroke-linecap="round"/>
<path d="M162.147 139.737L162.267 139.613C162.294 139.577 162.307 139.532 162.304 139.487C162.301 139.442 162.281 139.4 162.249 139.368C162.218 139.336 162.175 139.317 162.13 139.314C162.085 139.311 162.04 139.324 162.004 139.351L161.881 139.471C161.845 139.506 161.825 139.554 161.825 139.604C161.825 139.654 161.845 139.702 161.881 139.737C161.916 139.772 161.964 139.792 162.014 139.792C162.064 139.792 162.112 139.772 162.147 139.737Z" fill="#FFD8C5"/>
<path d="M181.315 102.14C181.315 102.14 186.7 102.736 190.015 100.711C190.015 100.711 190.258 103.827 191.946 104.836L191.998 106.516C191.998 106.516 192.748 104.48 194.518 105.414C196.288 106.347 195.43 109.31 193.461 109.872L195.16 116.956C195.342 117.715 195.806 118.376 196.458 118.806C197.109 119.237 197.9 119.404 198.67 119.274C201.139 118.884 203.531 118.107 205.757 116.971L204.568 112.73L206.848 116.48C208.276 115.895 209.638 115.162 210.913 114.294C211.05 114.192 211.16 114.059 211.232 113.904C211.304 113.75 211.337 113.58 211.326 113.41C211.316 113.24 211.263 113.075 211.172 112.931C211.082 112.786 210.957 112.667 210.808 112.584C207.553 110.746 205.004 107.876 203.563 104.427C200.683 97.3923 197.046 94.9623 192.602 95.6635C191.828 95.7947 191.037 95.7947 190.262 95.6635C188.38 95.3335 184.247 95.4798 181.315 102.14Z" fill="#041427"/>
<path d="M185.164 130.999L161.992 154.159C160.225 156.255 157.544 155.213 156.085 152.892C151.96 146.303 147.112 133.14 144.254 119.322" stroke="#005AAA" stroke-width="20" stroke-miterlimit="10"/>
<path d="M138.138 97.0003C160.681 97.0003 178.957 82.5799 178.957 64.7915C178.957 47.0031 160.681 32.5828 138.138 32.5828C115.594 32.5828 97.3191 47.0031 97.3191 64.7915C97.3191 82.5799 115.594 97.0003 138.138 97.0003Z" fill="#C9DCEE"/>
<path d="M163.675 82.9183C163.527 85.8211 164.069 88.7177 165.257 91.3703C166.446 94.0228 168.246 96.3556 170.512 98.177C170.512 98.177 147.637 101.612 139.893 81.452" fill="#C9DCEE"/>
<path d="M138.143 81.5678C147.407 81.5678 154.917 74.0579 154.917 64.794C154.917 55.5301 147.407 48.0203 138.143 48.0203C128.879 48.0203 121.369 55.5301 121.369 64.794C121.369 74.0579 128.879 81.5678 138.143 81.5678Z" fill="#2791E0"/>
<path d="M146.915 61.8257C146.033 61.2717 145.01 60.9832 143.969 60.9945C142.928 61.0058 141.912 61.3165 141.042 61.8895C140.24 62.422 140.99 63.7195 141.792 63.187C142.431 62.747 143.185 62.5059 143.961 62.4939C144.736 62.4819 145.498 62.6995 146.15 63.1195C146.967 63.6332 147.721 62.3357 146.9 61.8257H146.915Z" fill="white"/>
<path d="M131.562 67.2101C133.532 68.4711 135.827 69.1279 138.166 69.0992C140.504 69.0706 142.783 68.3578 144.721 67.0488C145.512 66.5051 144.762 65.2038 143.971 65.7551C142.262 66.9287 140.244 67.5703 138.172 67.599C136.099 67.6276 134.064 67.0422 132.324 65.9163C131.514 65.3838 130.76 66.6851 131.574 67.2101H131.562Z" fill="white"/>
<path d="M130.417 63.1195C131.069 62.6995 131.83 62.4819 132.606 62.4939C133.381 62.5059 134.136 62.747 134.774 63.187C135.58 63.7195 136.334 62.437 135.524 61.8895C134.655 61.3165 133.639 61.0058 132.597 60.9945C131.556 60.9832 130.533 61.2717 129.652 61.8257C128.834 62.3357 129.588 63.6332 130.402 63.1195H130.417Z" fill="white"/>
<path d="M174.034 134.272C172.789 137.103 172.703 140.185 172.789 143.249C172.891 146.815 173.026 150.374 173.146 153.944C173.146 154.184 173.521 154.184 173.521 153.944L173.183 143.909C173.082 140.722 173.029 137.444 174.361 134.474C174.458 134.253 174.136 134.065 174.034 134.283V134.272Z" fill="#041427"/>
<path d="M158.45 143.778L160.044 142.436C160.227 142.282 159.961 142.019 159.777 142.173L158.187 143.512C158 143.669 158.266 143.932 158.45 143.778Z" fill="#041427"/>
<path d="M205.465 131.786C206.256 133.86 222.692 148.89 227.455 158.786C232.217 168.683 232.221 190.305 232.221 190.305" stroke="#005AAA" stroke-width="20" stroke-miterlimit="10"/>
<path d="M207.479 150.987L213.146 155.592C213.333 155.742 213.599 155.479 213.412 155.326L207.746 150.721C207.558 150.571 207.292 150.833 207.479 150.987Z" fill="#041427"/>
<path d="M204.368 147.977C204.418 147.977 204.466 147.957 204.502 147.922C204.537 147.886 204.557 147.838 204.557 147.788C204.557 147.738 204.537 147.69 204.502 147.655C204.466 147.619 204.418 147.6 204.368 147.6C204.318 147.6 204.27 147.619 204.235 147.655C204.199 147.69 204.179 147.738 204.179 147.788C204.179 147.838 204.199 147.886 204.235 147.922C204.27 147.957 204.318 147.977 204.368 147.977Z" fill="#041427"/>
<path d="M202.903 143.213C202.953 143.213 203.001 143.193 203.037 143.158C203.072 143.122 203.092 143.074 203.092 143.024C203.092 142.974 203.072 142.926 203.037 142.891C203.001 142.855 202.953 142.836 202.903 142.836C202.853 142.836 202.805 142.855 202.77 142.891C202.734 142.926 202.715 142.974 202.715 143.024C202.715 143.074 202.734 143.122 202.77 143.158C202.805 143.193 202.853 143.213 202.903 143.213Z" fill="#041427"/>
<path d="M203.629 137.716C203.679 137.716 203.727 137.697 203.762 137.661C203.798 137.626 203.818 137.578 203.818 137.528C203.818 137.478 203.798 137.43 203.762 137.394C203.727 137.359 203.679 137.339 203.629 137.339C203.579 137.339 203.531 137.359 203.496 137.394C203.46 137.43 203.44 137.478 203.44 137.528C203.44 137.578 203.46 137.626 203.496 137.661C203.531 137.697 203.579 137.716 203.629 137.716Z" fill="#041427"/>
<path d="M195.611 164.624L203.696 169.473C203.781 169.511 203.877 169.517 203.965 169.488C204.054 169.46 204.128 169.4 204.175 169.32C204.222 169.24 204.237 169.145 204.218 169.054C204.199 168.963 204.146 168.883 204.071 168.828L195.986 163.979C195.902 163.941 195.806 163.936 195.718 163.964C195.629 163.992 195.554 164.052 195.508 164.133C195.461 164.213 195.446 164.308 195.465 164.398C195.484 164.489 195.536 164.57 195.611 164.624Z" fill="#041427"/>
<path d="M240.154 138.92C238.774 138.17 211.295 120.326 200.742 122.775C190.19 125.224 196.381 160.537 207.92 182.569" stroke="#2791E0" stroke-width="6" stroke-miterlimit="10"/>
</svg>
